{
  "accessors": [
    {
      "bufferView": 2,
      "componentType": 5126,
      "count": 54,
      "max": [
        46.43299865722656,
        23.295000076293945,
        58.29999923706055
      ],
      "min": [
        -46.367000579833984,
        -38.652000427246094,
        51.29399871826172
      ],
      "type": "VEC3"
    },
    {
      "bufferView": 2,
      "byteOffset": 648,
      "componentType": 5126,
      "count": 54,
      "max": [
        0.9996316432952881,
        1.0,
        0.9996316432952881
      ],
      "min": [
        -0.9996316432952881,
        -1.0,
        -0.9996316432952881
      ],
      "type": "VEC3"
    },
    {
      "bufferView": 1,
      "componentType": 5126,
      "count": 54,
      "max": [
        1.0,
        1.0
      ],
      "min": [
        0.0,
        0.0
      ],
      "type": "VEC2"
    },
    {
      "bufferView": 0,
      "componentType": 5125,
      "count": 144,
      "type": "SCALAR"
    },
    {
      "bufferView": 2,
      "byteOffset": 1296,
      "componentType": 5126,
      "count": 18,
      "max": [
        -0.7609999775886536,
        -42.81100082397461,
        116.73400115966797
      ],
      "min": [
        -46.27299880981445,
        -45.00699996948242,
        0.6880000233650208
      ],
      "type": "VEC3"
    },
    {
      "bufferView": 2,
      "byteOffset": 1512,
      "componentType": 5126,
      "count": 18,
      "max": [
        -0.0,
        1.0,
        -0.0
      ],
      "min": [
        -0.0,
        -1.0,
        -0.0
      ],
      "type": "VEC3"
    },
    {
      "bufferView": 1,
      "byteOffset": 432,
      "componentType": 5126,
      "count": 18,
      "max": [
        1.0,
        1.0
      ],
      "min": [
        0.0,
        0.0
      ],
      "type": "VEC2"
    },
    {
      "bufferView": 0,
      "byteOffset": 576,
      "componentType": 5125,
      "count": 48,
      "type": "SCALAR"
    },
    {
      "bufferView": 2,
      "byteOffset": 1728,
      "componentType": 5126,
      "count": 18,
      "max": [
        47.3849983215332,
        -41.64899826049805,
        116.73400115966797
      ],
      "min": [
        0.9980000257492065,
        -43.8120002746582,
        0.6880000233650208
      ],
      "type": "VEC3"
    },
    {
      "bufferView": 2,
      "byteOffset": 1944,
      "componentType": 5126,
      "count": 18,
      "max": [
        -0.0,
        1.0,
        -0.0
      ],
      "min": [
        -0.0,
        -1.0,
        -0.0
      ],
      "type": "VEC3"
    },
    {
      "bufferView": 1,
      "byteOffset": 576,
      "componentType": 5126,
      "count": 18,
      "max": [
        1.0,
        1.0
      ],
      "min": [
        0.0,
        0.0
      ],
      "type": "VEC2"
    },
    {
      "bufferView": 0,
      "byteOffset": 768,
      "componentType": 5125,
      "count": 48,
      "type": "SCALAR"
    },
    {
      "bufferView": 2,
      "byteOffset": 2160,
      "componentType": 5126,
      "count": 190,
      "max": [
        -0.7609999775886536,
        -40.757999420166016,
        116.73400115966797
      ],
      "min": [
        -46.27299880981445,
        -46.972999572753906,
        0.6880000233650208
      ],
      "type": "VEC3"
    },
    {
      "bufferView": 2,
      "byteOffset": 4440,
      "componentType": 5126,
      "count": 190,
      "max": [
        1.0,
        1.0,
        1.0
      ],
      "min": [
        -1.0,
        -1.0,
        -1.0
      ],
      "type": "VEC3"
    },
    {
      "bufferView": 1,
      "byteOffset": 720,
      "componentType": 5126,
      "count": 190,
      "max": [
        1.0,
        1.0
      ],
      "min": [
        0.0,
        0.0
      ],
      "type": "VEC2"
    },
    {
      "bufferView": 0,
      "byteOffset": 960,
      "componentType": 5125,
      "count": 552,
      "type": "SCALAR"
    },
    {
      "bufferView": 2,
      "byteOffset": 6720,
      "componentType": 5126,
      "count": 190,
      "max": [
        47.3849983215332,
        -40.47100067138672,
        116.73400115966797
      ],
      "min": [
        0.9980000257492065,
        -46.50400161743164,
        0.6880000233650208
      ],
      "type": "VEC3"
    },
    {
      "bufferView": 2,
      "byteOffset": 9000,
      "componentType": 5126,
      "count": 190,
      "max": [
        1.0,
        1.0,
        1.0
      ],
      "min": [
        -1.0,
        -1.0,
        -1.0
      ],
      "type": "VEC3"
    },
    {
      "bufferView": 1,
      "byteOffset": 2240,
      "componentType": 5126,
      "count": 190,
      "max": [
        1.0,
        1.0
      ],
      "min": [
        0.0,
        0.0
      ],
      "type": "VEC2"
    },
    {
      "bufferView": 0,
      "byteOffset": 3168,
      "componentType": 5125,
      "count": 552,
      "type": "SCALAR"
    },
    {
      "bufferView": 2,
      "byteOffset": 11280,
      "componentType": 5126,
      "count": 185,
      "max": [
        48.1510009765625,
        27.888999938964844,
        117.96499633789063
      ],
      "min": [
        -48.1510009765625,
        -39.749000549316406,
        0.0
      ],
      "type": "VEC3"
    },
    {
      "bufferView": 2,
      "byteOffset": 13500,
      "componentType": 5126,
      "count": 185,
      "max": [
        1.0,
        1.0,
        1.0
      ],
      "min": [
        -1.0,
        -1.0,
        -1.0
      ],
      "type": "VEC3"
    },
    {
      "bufferView": 1,
      "byteOffset": 3760,
      "componentType": 5126,
      "count": 185,
      "max": [
        1.0,
        1.0
      ],
      "min": [
        0.0,
        0.0
      ],
      "type": "VEC2"
    },
    {
      "bufferView": 0,
      "byteOffset": 5376,
      "componentType": 5125,
      "count": 564,
      "type": "SCALAR"
    },
    {
      "bufferView": 2,
      "byteOffset": 15720,
      "componentType": 5126,
      "count": 56,
      "max": [
        50.176998138427734,
        -38.25199890136719,
        103.02300262451172
      ],
      "min": [
        45.25,
        -43.21500015258789,
        91.24500274658203
      ],
      "type": "VEC3"
    },
    {
      "bufferView": 2,
      "byteOffset": 16392,
      "componentType": 5126,
      "count": 56,
      "max": [
        1.0,
        0.9927084445953369,
        1.0
      ],
      "min": [
        -0.9709408283233643,
        -0.9927084445953369,
        -1.0
      ],
      "type": "VEC3"
    },
    {
      "bufferView": 1,
      "byteOffset": 5240,
      "componentType": 5126,
      "count": 56,
      "max": [
        1.0,
        1.0
      ],
      "min": [
        0.0,
        0.0
      ],
      "type": "VEC2"
    },
    {
      "bufferView": 0,
      "byteOffset": 7632,
      "componentType": 5125,
      "count": 156,
      "type": "SCALAR"
    },
    {
      "bufferView": 2,
      "byteOffset": 17064,
      "componentType": 5126,
      "count": 56,
      "max": [
        -44.21099853515625,
        -38.25199890136719,
        103.02300262451172
      ],
      "min": [
        -49.138999938964844,
        -43.21500015258789,
        91.24500274658203
      ],
      "type": "VEC3"
    },
    {
      "bufferView": 2,
      "byteOffset": 17736,
      "componentType": 5126,
      "count": 56,
      "max": [
        1.0,
        0.9927084445953369,
        1.0
      ],
      "min": [
        -0.9709408283233643,
        -0.9927084445953369,
        -1.0
      ],
      "type": "VEC3"
    },
    {
      "bufferView": 1,
      "byteOffset": 5688,
      "componentType": 5126,
      "count": 56,
      "max": [
        1.0,
        1.0
      ],
      "min": [
        0.0,
        0.0
      ],
      "type": "VEC2"
    },
    {
      "bufferView": 0,
      "byteOffset": 8256,
      "componentType": 5125,
      "count": 156,
      "type": "SCALAR"
    },
    {
      "bufferView": 2,
      "byteOffset": 18408,
      "componentType": 5126,
      "count": 56,
      "max": [
        -44.21099853515625,
        -38.25199890136719,
        23.302000045776367
      ],
      "min": [
        -49.138999938964844,
        -43.21500015258789,
        11.524999618530273
      ],
      "type": "VEC3"
    },
    {
      "bufferView": 2,
      "byteOffset": 19080,
      "componentType": 5126,
      "count": 56,
      "max": [
        1.0,
        0.9927084445953369,
        1.0
      ],
      "min": [
        -0.9709408283233643,
        -0.9927084445953369,
        -1.0
      ],
      "type": "VEC3"
    },
    {
      "bufferView": 1,
      "byteOffset": 6136,
      "componentType": 5126,
      "count": 56,
      "max": [
        1.0,
        1.0
      ],
      "min": [
        0.0,
        0.0
      ],
      "type": "VEC2"
    },
    {
      "bufferView": 0,
      "byteOffset": 8880,
      "componentType": 5125,
      "count": 156,
      "type": "SCALAR"
    },
    {
      "bufferView": 2,
      "byteOffset": 19752,
      "componentType": 5126,
      "count": 44,
      "max": [
        -4.949999809265137,
        -46.18000030517578,
        59.89099884033203
      ],
      "min": [
        -7.849999904632568,
        -49.46799850463867,
        57.132999420166016
      ],
      "type": "VEC3"
    },
    {
      "bufferView": 2,
      "byteOffset": 20280,
      "componentType": 5126,
      "count": 44,
      "max": [
        1.0,
        1.0,
        0.9510560035705566
      ],
      "min": [
        -1.0,
        -1.0,
        -0.9510560035705566
      ],
      "type": "VEC3"
    },
    {
      "bufferView": 1,
      "byteOffset": 6584,
      "componentType": 5126,
      "count": 44,
      "max": [
        1.0,
        1.0
      ],
      "min": [
        0.0,
        0.0
      ],
      "type": "VEC2"
    },
    {
      "bufferView": 0,
      "byteOffset": 9504,
      "componentType": 5125,
      "count": 120,
      "type": "SCALAR"
    },
    {
      "bufferView": 2,
      "byteOffset": 20808,
      "componentType": 5126,
      "count": 44,
      "max": [
        9.380000114440918,
        -46.18000030517578,
        58.90999984741211
      ],
      "min": [
        6.480000019073486,
        -49.46799850463867,
        56.152000427246094
      ],
      "type": "VEC3"
    },
    {
      "bufferView": 2,
      "byteOffset": 21336,
      "componentType": 5126,
      "count": 44,
      "max": [
        1.0,
        1.0,
        0.9510560035705566
      ],
      "min": [
        -1.0,
        -1.0,
        -0.9510560035705566
      ],
      "type": "VEC3"
    },
    {
      "bufferView": 1,
      "byteOffset": 6936,
      "componentType": 5126,
      "count": 44,
      "max": [
        1.0,
        1.0
      ],
      "min": [
        0.0,
        0.0
      ],
      "type": "VEC2"
    },
    {
      "bufferView": 0,
      "byteOffset": 9984,
      "componentType": 5125,
      "count": 120,
      "type": "SCALAR"
    },
    {
      "bufferView": 2,
      "byteOffset": 21864,
      "componentType": 5126,
      "count": 56,
      "max": [
        50.176998138427734,
        -38.25199890136719,
        24.885000228881836
      ],
      "min": [
        45.25,
        -43.21500015258789,
        13.107999801635742
      ],
      "type": "VEC3"
    },
    {
      "bufferView": 2,
      "byteOffset": 22536,
      "componentType": 5126,
      "count": 56,
      "max": [
        1.0,
        0.9927084445953369,
        1.0
      ],
      "min": [
        -0.9709408283233643,
        -0.9927084445953369,
        -1.0
      ],
      "type": "VEC3"
    },
    {
      "bufferView": 1,
      "byteOffset": 7288,
      "componentType": 5126,
      "count": 56,
      "max": [
        1.0,
        1.0
      ],
      "min": [
        0.0,
        0.0
      ],
      "type": "VEC2"
    },
    {
      "bufferView": 0,
      "byteOffset": 10464,
      "componentType": 5125,
      "count": 156,
      "type": "SCALAR"
    },
    {
      "bufferView": 2,
      "byteOffset": 23208,
      "componentType": 5126,
      "count": 119,
      "max": [
        12.930000305175781,
        -49.013999938964844,
        62.4900016784668
      ],
      "min": [
        2.930000066757202,
        -53.784000396728516,
        52.4900016784668
      ],
      "type": "VEC3"
    },
    {
      "bufferView": 2,
      "byteOffset": 24636,
      "componentType": 5126,
      "count": 119,
      "max": [
        1.0,
        0.9869789481163025,
        1.0
      ],
      "min": [
        -1.0,
        -0.9869789481163025,
        -1.0
      ],
      "type": "VEC3"
    },
    {
      "bufferView": 1,
      "byteOffset": 7736,
      "componentType": 5126,
      "count": 119,
      "max": [
        1.0,
        1.0
      ],
      "min": [
        0.0,
        0.0
      ],
      "type": "VEC2"
    },
    {
      "bufferView": 0,
      "byteOffset": 11088,
      "componentType": 5125,
      "count": 540,
      "type": "SCALAR"
    },
    {
      "bufferView": 2,
      "byteOffset": 26064,
      "componentType": 5126,
      "count": 119,
      "max": [
        -1.399999976158142,
        -49.013999938964844,
        63.47100067138672
      ],
      "min": [
        -11.399999618530273,
        -53.784000396728516,
        53.47100067138672
      ],
      "type": "VEC3"
    },
    {
      "bufferView": 2,
      "byteOffset": 27492,
      "componentType": 5126,
      "count": 119,
      "max": [
        1.0,
        0.9869789481163025,
        1.0
      ],
      "min": [
        -1.0,
        -0.9869789481163025,
        -1.0
      ],
      "type": "VEC3"
    },
    {
      "bufferView": 1,
      "byteOffset": 8688,
      "componentType": 5126,
      "count": 119,
      "max": [
        1.0,
        1.0
      ],
      "min": [
        0.0,
        0.0
      ],
      "type": "VEC2"
    },
    {
      "bufferView": 0,
      "byteOffset": 13248,
      "componentType": 5125,
      "count": 540,
      "type": "SCALAR"
    }
  ],
  "asset": {
    "extras": {
      "author": "Kirkieb (https://sketchfab.com/kirkieo)",
      "license": "CC-BY-4.0 (http://creativecommons.org/licenses/by/4.0/)",
      "source": "https://sketchfab.com/3d-models/cabinet-ccc471c031064879ac0fcf1a3a984c6b",
      "title": "Cabinet"
    },
    "generator": "Sketchfab-12.65.0",
    "version": "2.0"
  },
  "bufferViews": [
    {
      "buffer": 0,
      "byteLength": 15408,
      "name": "floatBufferViews",
      "target": 34963
    },
    {
      "buffer": 0,
      "byteLength": 9640,
      "byteOffset": 15408,
      "byteStride": 8,
      "name": "floatBufferViews",
      "target": 34962
    },
    {
      "buffer": 0,
      "byteLength": 28920,
      "byteOffset": 25048,
      "byteStride": 12,
      "name": "floatBufferViews",
      "target": 34962
    }
  ],
  "buffers": [
    {
      "byteLength": 53968,
      "uri": "scene.bin"
    }
  ],
  "images": [
    {
      "uri": "textures/Box_material_1_27863c06-25e8-44ce-8572-316473934e20_baseColor.jpeg"
    },
    {
      "uri": "textures/Box_material_4_7458c64c-7ffa-4c7c-9bcb-5cf5bdf297df_baseColor.jpeg"
    },
    {
      "uri": "textures/Cylinder_material_1_2685e932-07ec-42b0-989b-57ae462f949f_baseColor.jpeg"
    }
  ],
  "materials": [
    {
      "doubleSided": true,
      "name": "Box_material_1_27863c06-25e8-44ce-8572-316473934e20",
      "pbrMetallicRoughness": {
        "baseColorTexture": {
          "index": 0
        },
        "metallicFactor": 0.0
      }
    },
    {
      "doubleSided": true,
      "name": "Box_material_2_d55f50bf-f5ac-4560-bea5-172f1eacd1fb",
      "pbrMetallicRoughness": {
        "baseColorTexture": {
          "index": 0
        },
        "metallicFactor": 0.0
      }
    },
    {
      "doubleSided": true,
      "name": "Box_material_3_ca23be95-252e-42f1-ad45-c6cb36e3d9e3",
      "pbrMetallicRoughness": {
        "baseColorTexture": {
          "index": 0
        },
        "metallicFactor": 0.0
      }
    },
    {
      "doubleSided": true,
      "name": "Box_material_4_7458c64c-7ffa-4c7c-9bcb-5cf5bdf297df",
      "pbrMetallicRoughness": {
        "baseColorTexture": {
          "index": 1
        },
        "metallicFactor": 0.0
      }
    },
    {
      "doubleSided": true,
      "name": "Box_material_5_d6d52d6b-ab7f-4604-8f6b-7d12fa0a1ec5",
      "pbrMetallicRoughness": {
        "baseColorTexture": {
          "index": 1
        },
        "metallicFactor": 0.0
      }
    },
    {
      "doubleSided": true,
      "name": "Box_material_1774de25-7d33-4143-a961-f0dbbb339ee3",
      "pbrMetallicRoughness": {
        "baseColorTexture": {
          "index": 0
        },
        "metallicFactor": 0.0
      }
    },
    {
      "doubleSided": true,
      "name": "Cylinder_material_1_2685e932-07ec-42b0-989b-57ae462f949f",
      "pbrMetallicRoughness": {
        "baseColorTexture": {
          "index": 2
        },
        "metallicFactor": 0.0
      }
    },
    {
      "doubleSided": true,
      "name": "Cylinder_material_2_97370f4e-76e1-430c-893c-9a69de308abb",
      "pbrMetallicRoughness": {
        "baseColorTexture": {
          "index": 2
        },
        "metallicFactor": 0.0
      }
    },
    {
      "doubleSided": true,
      "name": "Cylinder_material_3_e3000e3f-87d1-4518-b2ba-38d2d486c6df",
      "pbrMetallicRoughness": {
        "baseColorTexture": {
          "index": 2
        },
        "metallicFactor": 0.0
      }
    },
    {
      "doubleSided": true,
      "name": "Cylinder_material_4_6aa1f764-9c2e-485c-a049-0228be8d1c38",
      "pbrMetallicRoughness": {
        "baseColorTexture": {
          "index": 2
        },
        "metallicFactor": 0.0
      }
    },
    {
      "doubleSided": true,
      "name": "Cylinder_material_5_332f7e2c-e55c-44ff-a102-4791a338e6b4",
      "pbrMetallicRoughness": {
        "baseColorTexture": {
          "index": 2
        },
        "metallicFactor": 0.0
      }
    },
    {
      "doubleSided": true,
      "name": "Cylinder_material_06d7994a-0275-4603-98b0-31ef5d05a8a4",
      "pbrMetallicRoughness": {
        "baseColorTexture": {
          "index": 2
        },
        "metallicFactor": 0.0
      }
    },
    {
      "doubleSided": true,
      "name": "Sphere_material_1_1f03b8bf-61d2-48d2-933a-1e6d377a633a",
      "pbrMetallicRoughness": {
        "baseColorTexture": {
          "index": 2
        },
        "metallicFactor": 0.0
      }
    },
    {
      "doubleSided": true,
      "name": "Sphere_material_d5dec737-68d4-446c-89b6-6d6507bda723",
      "pbrMetallicRoughness": {
        "baseColorTexture": {
          "index": 2
        },
        "metallicFactor": 0.0
      }
    }
  ],
  "meshes": [
    {
      "name": "Object_0",
      "primitives": [
        {
          "attributes": {
            "NORMAL": 1,
            "POSITION": 0,
            "TEXCOORD_0": 2
          },
          "indices": 3,
          "material": 0,
          "mode": 4
        }
      ]
    },
    {
      "name": "Object_1",
      "primitives": [
        {
          "attributes": {
            "NORMAL": 5,
            "POSITION": 4,
            "TEXCOORD_0": 6
          },
          "indices": 7,
          "material": 1,
          "mode": 4
        }
      ]
    },
    {
      "name": "Object_2",
      "primitives": [
        {
          "attributes": {
            "NORMAL": 9,
            "POSITION": 8,
            "TEXCOORD_0": 10
          },
          "indices": 11,
          "material": 2,
          "mode": 4
        }
      ]
    },
    {
      "name": "Object_3",
      "primitives": [
        {
          "attributes": {
            "NORMAL": 13,
            "POSITION": 12,
            "TEXCOORD_0": 14
          },
          "indices": 15,
          "material": 3,
          "mode": 4
        }
      ]
    },
    {
      "name": "Object_4",
      "primitives": [
        {
          "attributes": {
            "NORMAL": 17,
            "POSITION": 16,
            "TEXCOORD_0": 18
          },
          "indices": 19,
          "material": 4,
          "mode": 4
        }
      ]
    },
    {
      "name": "Object_5",
      "primitives": [
        {
          "attributes": {
            "NORMAL": 21,
            "POSITION": 20,
            "TEXCOORD_0": 22
          },
          "indices": 23,
          "material": 5,
          "mode": 4
        }
      ]
    },
    {
      "name": "Object_6",
      "primitives": [
        {
          "attributes": {
            "NORMAL": 25,
            "POSITION": 24,
            "TEXCOORD_0": 26
          },
          "indices": 27,
          "material": 6,
          "mode": 4
        }
      ]
    },
    {
      "name": "Object_7",
      "primitives": [
        {
          "attributes": {
            "NORMAL": 29,
            "POSITION": 28,
            "TEXCOORD_0": 30
          },
          "indices": 31,
          "material": 7,
          "mode": 4
        }
      ]
    },
    {
      "name": "Object_8",
      "primitives": [
        {
          "attributes": {
            "NORMAL": 33,
            "POSITION": 32,
            "TEXCOORD_0": 34
          },
          "indices": 35,
          "material": 8,
          "mode": 4
        }
      ]
    },
    {
      "name": "Object_9",
      "primitives": [
        {
          "attributes": {
            "NORMAL": 37,
            "POSITION": 36,
            "TEXCOORD_0": 38
          },
          "indices": 39,
          "material": 9,
          "mode": 4
        }
      ]
    },
    {
      "name": "Object_10",
      "primitives": [
        {
          "attributes": {
            "NORMAL": 41,
            "POSITION": 40,
            "TEXCOORD_0": 42
          },
          "indices": 43,
          "material": 10,
          "mode": 4
        }
      ]
    },
    {
      "name": "Object_11",
      "primitives": [
        {
          "attributes": {
            "NORMAL": 45,
            "POSITION": 44,
            "TEXCOORD_0": 46
          },
          "indices": 47,
          "material": 11,
          "mode": 4
        }
      ]
    },
    {
      "name": "Object_12",
      "primitives": [
        {
          "attributes": {
            "NORMAL": 49,
            "POSITION": 48,
            "TEXCOORD_0": 50
          },
          "indices": 51,
          "material": 12,
          "mode": 4
        }
      ]
    },
    {
      "name": "Object_13",
      "primitives": [
        {
          "attributes": {
            "NORMAL": 53,
            "POSITION": 52,
            "TEXCOORD_0": 54
          },
          "indices": 55,
          "material": 13,
          "mode": 4
        }
      ]
    }
  ],
  "nodes": [
    {
      "children": [
        1
      ],
      "matrix": [
        1.0,
        0.0,
        0.0,
        0.0,
        0.0,
        2.220446049250313e-16,
        -1.0,
        0.0,
        0.0,
        1.0,
        2.220446049250313e-16,
        0.0,
        0.0,
        0.0,
        0.0,
        1.0
      ],
      "name": "Sketchfab_model"
    },
    {
      "children": [
        2,
        3,
        4,
        5,
        6,
        7,
        8,
        9,
        10,
        11,
        12,
        13,
        14,
        15
      ],
      "name": "Cabinet.obj.cleaner.materialmerger.gles"
    },
    {
      "mesh": 0,
      "name": "Object_2"
    },
    {
      "mesh": 1,
      "name": "Object_3"
    },
    {
      "mesh": 2,
      "name": "Object_4"
    },
    {
      "mesh": 3,
      "name": "Object_5"
    },
    {
      "mesh": 4,
      "name": "Object_6"
    },
    {
      "mesh": 5,
      "name": "Object_7"
    },
    {
      "mesh": 6,
      "name": "Object_8"
    },
    {
      "mesh": 7,
      "name": "Object_9"
    },
    {
      "mesh": 8,
      "name": "Object_10"
    },
    {
      "mesh": 9,
      "name": "Object_11"
    },
    {
      "mesh": 10,
      "name": "Object_12"
    },
    {
      "mesh": 11,
      "name": "Object_13"
    },
    {
      "mesh": 12,
      "name": "Object_14"
    },
    {
      "mesh": 13,
      "name": "Object_15"
    }
  ],
  "samplers": [
    {
      "magFilter": 9729,
      "minFilter": 9987,
      "wrapS": 10497,
      "wrapT": 10497
    }
  ],
  "scene": 0,
  "scenes": [
    {
      "name": "Sketchfab_Scene",
      "nodes": [
        0
      ]
    }
  ],
  "textures": [
    {
      "sampler": 0,
      "source": 0
    },
    {
      "sampler": 0,
      "source": 1
    },
    {
      "sampler": 0,
      "source": 2
    }
  ]
}
