solid Exported from Blender-3.6.5
facet normal -0.851242 0.509558 0.125449
outer loop
vertex -10.549011 -8.885849 62.189430
vertex -7.555016 -1.176849 51.192432
vertex -13.828011 -9.512856 42.486435
endloop
endfacet
facet normal -0.999388 0.006030 0.034443
outer loop
vertex -10.549011 -8.885849 62.189430
vertex -10.932014 -19.669853 52.964436
vertex -10.549011 -24.313854 64.890434
endloop
endfacet
facet normal -0.980140 -0.107655 0.166542
outer loop
vertex -13.828011 -9.512856 42.486435
vertex -10.932014 -19.669853 52.964436
vertex -10.549011 -8.885849 62.189430
endloop
endfacet
facet normal -0.974727 -0.214883 0.061104
outer loop
vertex -12.145012 -17.136856 42.522434
vertex -10.932014 -19.669853 52.964436
vertex -13.828011 -9.512856 42.486435
endloop
endfacet
facet normal -0.694726 0.494739 0.522100
outer loop
vertex -0.655014 1.063148 90.251434
vertex -5.136009 -1.253853 86.484428
vertex -0.794014 -2.238853 93.195435
endloop
endfacet
facet normal -0.433407 0.808051 0.399014
outer loop
vertex -0.794014 -2.238853 93.195435
vertex -5.136009 -1.253853 86.484428
vertex -4.592010 -4.920853 94.501434
endloop
endfacet
facet normal -0.876554 0.390435 0.281448
outer loop
vertex -3.403015 22.922150 34.078434
vertex -6.748016 18.411148 29.918428
vertex -4.401016 13.679146 43.792435
endloop
endfacet
facet normal 0.952957 -0.001304 0.303101
outer loop
vertex 30.640991 19.118149 30.140429
vertex 25.833984 16.485146 45.242435
vertex 26.852989 0.157150 41.968433
endloop
endfacet
facet normal -0.931546 0.156246 -0.328344
outer loop
vertex -20.245010 16.367149 2.404429
vertex -23.498013 7.257149 7.298429
vertex -21.281013 22.488144 8.256429
endloop
endfacet
facet normal -0.818897 0.571144 -0.056587
outer loop
vertex -8.292015 23.881149 25.634430
vertex -13.375011 15.713150 16.751429
vertex -15.203011 13.709145 22.978430
endloop
endfacet
facet normal -0.472974 0.872648 0.121574
outer loop
vertex -9.007011 0.549149 33.154434
vertex -7.555016 -1.176849 51.192432
vertex -6.882011 0.595146 41.091434
endloop
endfacet
facet normal -0.503915 0.829679 -0.240213
outer loop
vertex -14.946014 -5.846855 75.150429
vertex -9.088013 -1.317856 78.504433
vertex -5.749016 -3.129852 65.241432
endloop
endfacet
facet normal -0.522369 0.761022 0.384677
outer loop
vertex -10.996014 -2.499855 27.302429
vertex -9.174011 -3.892853 32.532433
vertex -6.951012 2.445145 23.012428
endloop
endfacet
facet normal -0.981612 0.181288 -0.059775
outer loop
vertex -11.328011 -6.790855 19.740429
vertex -12.965012 -12.438854 29.493429
vertex -10.996014 -2.499855 27.302429
endloop
endfacet
facet normal -0.989396 0.142137 0.029860
outer loop
vertex -22.556015 12.711151 12.549429
vertex -21.281013 22.488144 8.256429
vertex -23.498013 7.257149 7.298429
endloop
endfacet
facet normal -0.824284 0.155635 0.544365
outer loop
vertex -19.399014 -20.779854 85.050430
vertex -16.036011 -24.510857 91.209435
vertex -11.242012 -11.610855 94.780434
endloop
endfacet
facet normal -0.586177 0.805991 0.082308
outer loop
vertex -27.495014 -14.756851 73.029434
vertex -30.595013 -17.812851 80.877434
vertex -14.946014 -5.846855 75.150429
endloop
endfacet
facet normal 0.950384 0.287639 -0.118466
outer loop
vertex 27.013992 23.663147 12.078429
vertex 27.991989 25.850151 25.234428
vertex 30.640991 19.118149 30.140429
endloop
endfacet
facet normal -0.678975 0.687522 0.257499
outer loop
vertex -17.344013 -11.367851 83.568428
vertex -9.088013 -1.317856 78.504433
vertex -14.946014 -5.846855 75.150429
endloop
endfacet
facet normal 0.842704 0.344920 0.413376
outer loop
vertex 6.180984 -5.939850 94.763435
vertex 14.582993 -17.290855 87.106430
vertex 15.425987 -8.090851 77.711433
endloop
endfacet
facet normal 0.839103 -0.056125 0.541069
outer loop
vertex 20.628990 -3.470856 51.244434
vertex 26.852989 0.157150 41.968433
vertex 25.833984 16.485146 45.242435
endloop
endfacet
facet normal -0.827172 0.312844 0.466814
outer loop
vertex -17.030014 31.594147 9.686429
vertex -21.281013 22.488144 8.256429
vertex -22.556015 12.711151 12.549429
endloop
endfacet
facet normal -0.253093 0.942853 -0.216728
outer loop
vertex 5.807991 0.418144 67.180428
vertex -5.749016 -3.129852 65.241432
vertex -3.642014 -0.108856 75.923431
endloop
endfacet
facet normal -0.702697 -0.119210 0.701431
outer loop
vertex -19.399014 -20.779854 85.050430
vertex -11.242012 -11.610855 94.780434
vertex -16.939011 -9.955853 89.354431
endloop
endfacet
facet normal 0.216620 0.346446 0.912716
outer loop
vertex 6.774986 5.477150 59.580433
vertex 13.567986 -0.250854 60.142433
vertex 12.257988 18.380150 53.381435
endloop
endfacet
facet normal 0.522647 0.117643 0.844393
outer loop
vertex 12.257988 18.380150 53.381435
vertex 20.628990 -3.470856 51.244434
vertex 25.833984 16.485146 45.242435
endloop
endfacet
facet normal -0.698267 0.705686 0.120127
outer loop
vertex -16.797012 32.882149 3.474429
vertex -17.030014 31.594147 9.686429
vertex -9.359013 39.566147 7.444429
endloop
endfacet
facet normal -0.853419 0.182630 0.488182
outer loop
vertex -6.748016 18.411148 29.918428
vertex -3.403015 22.922150 34.078434
vertex -5.344009 26.573151 29.319429
endloop
endfacet
facet normal 0.987648 0.119803 0.100989
outer loop
vertex 30.640991 19.118149 30.140429
vertex 33.137985 5.312149 22.098429
vertex 32.321991 21.003151 11.464429
endloop
endfacet
facet normal 0.764761 0.547948 0.338959
outer loop
vertex 27.991989 25.850151 25.234428
vertex 25.833984 16.485146 45.242435
vertex 30.640991 19.118149 30.140429
endloop
endfacet
facet normal 0.800317 0.253456 0.543371
outer loop
vertex 13.567986 -0.250854 60.142433
vertex 20.628990 -3.470856 51.244434
vertex 12.257988 18.380150 53.381435
endloop
endfacet
facet normal 0.802818 0.100871 0.587630
outer loop
vertex 6.180984 -5.939850 94.763435
vertex -2.177010 -0.459854 105.241432
vertex -2.555016 -5.449852 106.614433
endloop
endfacet
facet normal 0.366442 0.079968 0.926998
outer loop
vertex 6.180984 -5.939850 94.763435
vertex -1.750015 -12.174854 98.436432
vertex 6.475990 -13.991852 95.341431
endloop
endfacet
facet normal 0.583781 0.757738 0.291604
outer loop
vertex -0.655014 1.063148 90.251434
vertex 6.180984 -5.939850 94.763435
vertex 3.655991 -0.920853 86.776428
endloop
endfacet
facet normal -0.015620 0.859856 -0.510298
outer loop
vertex 3.655991 -0.920853 86.776428
vertex -5.136009 -1.253853 86.484428
vertex -0.655014 1.063148 90.251434
endloop
endfacet
facet normal -0.059253 0.779546 0.623536
outer loop
vertex 15.786987 28.749146 40.753433
vertex 3.690987 24.043152 45.487434
vertex 12.257988 18.380150 53.381435
endloop
endfacet
facet normal 0.786241 0.496932 0.367265
outer loop
vertex 6.180984 -5.939850 94.763435
vertex 1.465988 -0.269852 97.185432
vertex -2.177010 -0.459854 105.241432
endloop
endfacet
facet normal -0.465629 0.795013 0.388773
outer loop
vertex -14.946014 -5.846855 75.150429
vertex -30.595013 -17.812851 80.877434
vertex -17.344013 -11.367851 83.568428
endloop
endfacet
facet normal -0.329255 0.789060 0.518628
outer loop
vertex -5.749016 -3.129852 65.241432
vertex 5.807991 0.418144 67.180428
vertex 1.709991 2.883148 60.828434
endloop
endfacet
facet normal -0.748852 0.516841 0.414846
outer loop
vertex 3.690987 24.043152 45.487434
vertex -3.403015 22.922150 34.078434
vertex -4.401016 13.679146 43.792435
endloop
endfacet
facet normal -0.994894 -0.084699 -0.054879
outer loop
vertex -16.797012 32.882149 3.474429
vertex -16.537010 28.779144 5.093430
vertex -17.030014 31.594147 9.686429
endloop
endfacet
facet normal -0.965965 0.006873 0.258581
outer loop
vertex -8.540009 4.972145 34.781433
vertex -9.007011 0.549149 33.154434
vertex -6.882011 0.595146 41.091434
endloop
endfacet
facet normal -0.590051 0.804905 -0.062992
outer loop
vertex -4.592010 -4.920853 94.501434
vertex 1.465988 -0.269852 97.185432
vertex -0.794014 -2.238853 93.195435
endloop
endfacet
facet normal 0.743519 0.661145 -0.100332
outer loop
vertex 1.465988 -0.269852 97.185432
vertex 6.180984 -5.939850 94.763435
vertex -0.655014 1.063148 90.251434
endloop
endfacet
facet normal -0.887124 -0.436445 0.150092
outer loop
vertex -17.764015 -1.445854 15.882430
vertex -23.498013 7.257149 7.298429
vertex -18.242012 -2.424850 10.210429
endloop
endfacet
facet normal -0.696572 0.612974 0.372893
outer loop
vertex -3.146011 30.494148 22.111429
vertex -3.403015 22.922150 34.078434
vertex 3.690987 24.043152 45.487434
endloop
endfacet
facet normal -0.654728 0.704910 0.272823
outer loop
vertex -5.211014 3.366150 49.748432
vertex -5.749016 -3.129852 65.241432
vertex 0.497986 6.579147 55.147434
endloop
endfacet
facet normal -0.850247 0.495319 0.178155
outer loop
vertex -7.555016 -1.176849 51.192432
vertex -5.749016 -3.129852 65.241432
vertex -5.211014 3.366150 49.748432
endloop
endfacet
facet normal 0.914091 0.111868 0.389774
outer loop
vertex 19.776993 -9.595852 55.000435
vertex 20.628990 -3.470856 51.244434
vertex 16.894989 -8.080856 61.324436
endloop
endfacet
facet normal -0.813385 -0.100785 -0.572929
outer loop
vertex -10.549011 -8.885849 62.189430
vertex -14.147011 -21.675854 69.547432
vertex -16.897011 -11.004852 71.574432
endloop
endfacet
facet normal -0.041032 0.993942 0.101956
outer loop
vertex 3.655991 -0.920853 86.776428
vertex -3.642014 -0.108856 75.923431
vertex -5.136009 -1.253853 86.484428
endloop
endfacet
facet normal 0.696726 0.708857 -0.109975
outer loop
vertex 22.541992 29.050148 4.430429
vertex 12.631989 38.567154 2.990429
vertex 19.644989 34.677147 22.346428
endloop
endfacet
facet normal 0.456195 0.880345 0.129916
outer loop
vertex 27.013992 23.663147 12.078429
vertex 30.640991 19.118149 30.140429
vertex 32.321991 21.003151 11.464429
endloop
endfacet
facet normal -0.408069 0.765452 0.497557
outer loop
vertex -13.140015 3.333145 16.570429
vertex -10.996014 -2.499855 27.302429
vertex -6.951012 2.445145 23.012428
endloop
endfacet
facet normal -0.338254 -0.020176 0.940839
outer loop
vertex -13.140015 3.333145 16.570429
vertex -13.375011 15.713150 16.751429
vertex -18.870010 10.098145 14.655431
endloop
endfacet
facet normal -0.663332 -0.484235 0.570532
outer loop
vertex -6.951012 2.445145 23.012428
vertex -15.203011 13.709145 22.978430
vertex -13.140015 3.333145 16.570429
endloop
endfacet
facet normal -0.664481 0.419392 0.618527
outer loop
vertex -13.375011 15.713150 16.751429
vertex -8.846008 24.365150 15.750430
vertex -18.870010 10.098145 14.655431
endloop
endfacet
facet normal -0.893061 0.081147 -0.442558
outer loop
vertex -21.636013 4.816147 3.093429
vertex -23.498013 7.257149 7.298429
vertex -20.245010 16.367149 2.404429
endloop
endfacet
facet normal -0.990354 0.017432 -0.137456
outer loop
vertex -6.951012 2.445145 23.012428
vertex -8.540009 4.972145 34.781433
vertex -7.593010 10.957146 28.717428
endloop
endfacet
facet normal 0.738224 0.668447 -0.090574
outer loop
vertex 27.991989 25.850151 25.234428
vertex 22.541992 29.050148 4.430429
vertex 19.644989 34.677147 22.346428
endloop
endfacet
facet normal 0.998395 0.014882 -0.054652
outer loop
vertex 33.137985 5.312149 22.098429
vertex 32.461990 5.886147 9.905429
vertex 32.321991 21.003151 11.464429
endloop
endfacet
facet normal 0.518302 -0.727667 -0.449293
outer loop
vertex -3.146011 30.494148 22.111429
vertex -1.283012 25.160149 32.899433
vertex -3.403015 22.922150 34.078434
endloop
endfacet
facet normal -0.700014 0.307278 0.644639
outer loop
vertex -15.203011 13.709145 22.978430
vertex -6.748016 18.411148 29.918428
vertex -8.292015 23.881149 25.634430
endloop
endfacet
facet normal -0.228323 0.081246 0.970190
outer loop
vertex -17.764015 -1.445854 15.882430
vertex -13.140015 3.333145 16.570429
vertex -18.870010 10.098145 14.655431
endloop
endfacet
facet normal -0.979761 0.171251 -0.103642
outer loop
vertex -10.996014 -2.499855 27.302429
vertex -12.965012 -12.438854 29.493429
vertex -13.828011 -9.512856 42.486435
endloop
endfacet
facet normal -0.976345 -0.215605 -0.016295
outer loop
vertex -12.965012 -12.438854 29.493429
vertex -12.145012 -17.136856 42.522434
vertex -13.828011 -9.512856 42.486435
endloop
endfacet
facet normal 0.526629 0.675218 0.516471
outer loop
vertex 6.774986 5.477150 59.580433
vertex 5.807991 0.418144 67.180428
vertex 13.567986 -0.250854 60.142433
endloop
endfacet
facet normal -0.530583 0.818415 -0.220632
outer loop
vertex -2.177010 -0.459854 105.241432
vertex 1.465988 -0.269852 97.185432
vertex -4.592010 -4.920853 94.501434
endloop
endfacet
facet normal -0.653056 0.292808 0.698413
outer loop
vertex -10.870010 32.288147 15.155431
vertex -17.030014 31.594147 9.686429
vertex -18.031013 21.557144 12.958429
endloop
endfacet
facet normal -0.503835 0.162528 0.848372
outer loop
vertex -18.870010 10.098145 14.655431
vertex -10.870010 32.288147 15.155431
vertex -18.031013 21.557144 12.958429
endloop
endfacet
facet normal -0.371852 0.703943 0.605136
outer loop
vertex -16.939011 -9.955853 89.354431
vertex -11.242012 -11.610855 94.780434
vertex -5.136009 -1.253853 86.484428
endloop
endfacet
facet normal -0.291915 0.210639 0.932961
outer loop
vertex -30.595013 -17.812851 80.877434
vertex -19.399014 -20.779854 85.050430
vertex -17.344013 -11.367851 83.568428
endloop
endfacet
facet normal -0.976345 0.215648 0.015715
outer loop
vertex -19.399014 -20.779854 85.050430
vertex -16.939011 -9.955853 89.354431
vertex -17.344013 -11.367851 83.568428
endloop
endfacet
facet normal -0.424047 0.532228 0.732746
outer loop
vertex 0.497986 6.579147 55.147434
vertex 6.774986 5.477150 59.580433
vertex 12.257988 18.380150 53.381435
endloop
endfacet
facet normal -0.688224 0.443442 0.574201
outer loop
vertex 3.690987 24.043152 45.487434
vertex -4.401016 13.679146 43.792435
vertex 0.497986 6.579147 55.147434
endloop
endfacet
facet normal -0.800519 0.570917 0.182272
outer loop
vertex -5.749016 -3.129852 65.241432
vertex -7.555016 -1.176849 51.192432
vertex -10.549011 -8.885849 62.189430
endloop
endfacet
facet normal -0.739453 0.379291 0.556191
outer loop
vertex -5.211014 3.366150 49.748432
vertex 0.497986 6.579147 55.147434
vertex -4.401016 13.679146 43.792435
endloop
endfacet
facet normal 0.581724 0.804654 0.118866
outer loop
vertex 15.425987 -8.090851 77.711433
vertex 5.807991 0.418144 67.180428
vertex 3.655991 -0.920853 86.776428
endloop
endfacet
facet normal 0.955797 0.281213 0.085853
outer loop
vertex 15.425987 -8.090851 77.711433
vertex 18.354988 -14.080856 64.723434
vertex 16.894989 -8.080856 61.324436
endloop
endfacet
facet normal 0.912739 0.400216 0.082066
outer loop
vertex 16.894989 -8.080856 61.324436
vertex 13.567986 -0.250854 60.142433
vertex 15.425987 -8.090851 77.711433
endloop
endfacet
facet normal -0.975448 -0.067100 0.209761
outer loop
vertex -6.882011 0.595146 41.091434
vertex -5.211014 3.366150 49.748432
vertex -8.540009 4.972145 34.781433
endloop
endfacet
facet normal -0.303118 0.930971 -0.203500
outer loop
vertex -9.088013 -1.317856 78.504433
vertex -3.642014 -0.108856 75.923431
vertex -5.749016 -3.129852 65.241432
endloop
endfacet
facet normal -0.607089 0.702842 -0.370751
outer loop
vertex -10.549011 -8.885849 62.189430
vertex -14.946014 -5.846855 75.150429
vertex -5.749016 -3.129852 65.241432
endloop
endfacet
facet normal -0.911114 -0.101568 -0.399445
outer loop
vertex -27.136013 -23.498856 74.433434
vertex -30.595013 -17.812851 80.877434
vertex -27.495014 -14.756851 73.029434
endloop
endfacet
facet normal -0.292134 0.812853 0.503913
outer loop
vertex 6.774986 5.477150 59.580433
vertex 1.709991 2.883148 60.828434
vertex 5.807991 0.418144 67.180428
endloop
endfacet
facet normal -0.182471 0.137895 -0.973493
outer loop
vertex -27.495014 -14.756851 73.029434
vertex -16.897011 -11.004852 71.574432
vertex -14.147011 -21.675854 69.547432
endloop
endfacet
facet normal 0.725569 0.075681 0.683975
outer loop
vertex 6.475990 -13.991852 95.341431
vertex 14.582993 -17.290855 87.106430
vertex 6.180984 -5.939850 94.763435
endloop
endfacet
facet normal 0.618343 0.700982 0.355353
outer loop
vertex 19.644989 34.677147 22.346428
vertex 15.786987 28.749146 40.753433
vertex 27.991989 25.850151 25.234428
endloop
endfacet
facet normal -0.614227 -0.057182 0.787055
outer loop
vertex -6.748016 18.411148 29.918428
vertex -15.203011 13.709145 22.978430
vertex -7.593010 10.957146 28.717428
endloop
endfacet
facet normal -0.949474 0.209521 0.233666
outer loop
vertex -4.401016 13.679146 43.792435
vertex -8.540009 4.972145 34.781433
vertex -5.211014 3.366150 49.748432
endloop
endfacet
facet normal 0.008273 0.997577 0.069073
outer loop
vertex 3.655991 -0.920853 86.776428
vertex 5.807991 0.418144 67.180428
vertex -3.642014 -0.108856 75.923431
endloop
endfacet
facet normal -0.992220 0.118587 -0.037910
outer loop
vertex -8.540009 4.972145 34.781433
vertex -6.748016 18.411148 29.918428
vertex -7.593010 10.957146 28.717428
endloop
endfacet
facet normal -0.600594 0.772519 -0.206160
outer loop
vertex -3.146011 30.494148 22.111429
vertex -0.775009 29.848145 12.783429
vertex -8.846008 24.365150 15.750430
endloop
endfacet
facet normal -0.880177 0.469106 0.072305
outer loop
vertex -8.292015 23.881149 25.634430
vertex -8.846008 24.365150 15.750430
vertex -13.375011 15.713150 16.751429
endloop
endfacet
facet normal -0.399896 0.162856 0.901976
outer loop
vertex -22.556015 12.711151 12.549429
vertex -18.870010 10.098145 14.655431
vertex -18.031013 21.557144 12.958429
endloop
endfacet
facet normal -0.958189 -0.014010 -0.285795
outer loop
vertex -13.140015 3.333145 16.570429
vertex -15.203011 13.709145 22.978430
vertex -13.375011 15.713150 16.751429
endloop
endfacet
facet normal 0.782116 0.403950 0.474467
outer loop
vertex 16.894989 -8.080856 61.324436
vertex 20.628990 -3.470856 51.244434
vertex 13.567986 -0.250854 60.142433
endloop
endfacet
facet normal -0.848634 0.515729 0.117661
outer loop
vertex -13.828011 -9.512856 42.486435
vertex -7.555016 -1.176849 51.192432
vertex -9.007011 0.549149 33.154434
endloop
endfacet
facet normal -0.972329 0.163900 -0.166471
outer loop
vertex -9.007011 0.549149 33.154434
vertex -8.540009 4.972145 34.781433
vertex -6.951012 2.445145 23.012428
endloop
endfacet
facet normal -0.980345 0.063035 -0.186952
outer loop
vertex -9.007011 0.549149 33.154434
vertex -6.951012 2.445145 23.012428
vertex -9.174011 -3.892853 32.532433
endloop
endfacet
facet normal -0.322009 0.880926 0.346812
outer loop
vertex -10.996014 -2.499855 27.302429
vertex -13.828011 -9.512856 42.486435
vertex -9.174011 -3.892853 32.532433
endloop
endfacet
facet normal -0.532198 0.806640 0.257095
outer loop
vertex -16.939011 -9.955853 89.354431
vertex -5.136009 -1.253853 86.484428
vertex -9.088013 -1.317856 78.504433
endloop
endfacet
facet normal -0.179303 0.980459 0.080934
outer loop
vertex -3.642014 -0.108856 75.923431
vertex -9.088013 -1.317856 78.504433
vertex -5.136009 -1.253853 86.484428
endloop
endfacet
facet normal -0.289135 0.773048 0.564622
outer loop
vertex -5.749016 -3.129852 65.241432
vertex 1.709991 2.883148 60.828434
vertex 0.497986 6.579147 55.147434
endloop
endfacet
facet normal -0.745829 0.546337 -0.381123
outer loop
vertex -10.549011 -8.885849 62.189430
vertex -16.897011 -11.004852 71.574432
vertex -14.946014 -5.846855 75.150429
endloop
endfacet
facet normal -0.634334 -0.462843 0.619191
outer loop
vertex -7.593010 10.957146 28.717428
vertex -15.203011 13.709145 22.978430
vertex -6.951012 2.445145 23.012428
endloop
endfacet
facet normal -0.885540 0.464023 0.022401
outer loop
vertex -6.882011 0.595146 41.091434
vertex -7.555016 -1.176849 51.192432
vertex -5.211014 3.366150 49.748432
endloop
endfacet
facet normal 0.384161 0.857566 0.342054
outer loop
vertex 13.567986 -0.250854 60.142433
vertex 5.807991 0.418144 67.180428
vertex 15.425987 -8.090851 77.711433
endloop
endfacet
facet normal -0.384830 0.499630 0.776064
outer loop
vertex 0.497986 6.579147 55.147434
vertex 12.257988 18.380150 53.381435
vertex 3.690987 24.043152 45.487434
endloop
endfacet
facet normal -0.949181 0.302205 0.087909
outer loop
vertex -5.773010 -9.774853 98.436432
vertex -2.177010 -0.459854 105.241432
vertex -4.592010 -4.920853 94.501434
endloop
endfacet
facet normal -0.261588 0.782569 0.564940
outer loop
vertex 6.774986 5.477150 59.580433
vertex 0.497986 6.579147 55.147434
vertex 1.709991 2.883148 60.828434
endloop
endfacet
facet normal -0.317634 0.618456 -0.718764
outer loop
vertex -16.897011 -11.004852 71.574432
vertex -27.495014 -14.756851 73.029434
vertex -14.946014 -5.846855 75.150429
endloop
endfacet
facet normal -0.814003 -0.100169 -0.572158
outer loop
vertex -10.549011 -24.313854 64.890434
vertex -14.147011 -21.675854 69.547432
vertex -10.549011 -8.885849 62.189430
endloop
endfacet
facet normal 0.466820 0.615031 0.635465
outer loop
vertex 15.786987 28.749146 40.753433
vertex 12.257988 18.380150 53.381435
vertex 25.833984 16.485146 45.242435
endloop
endfacet
facet normal 0.664712 -0.543628 0.512471
outer loop
vertex -2.555016 -5.449852 106.614433
vertex -1.750015 -12.174854 98.436432
vertex 6.180984 -5.939850 94.763435
endloop
endfacet
facet normal 0.638500 0.726306 0.254553
outer loop
vertex 6.180984 -5.939850 94.763435
vertex 15.425987 -8.090851 77.711433
vertex 3.655991 -0.920853 86.776428
endloop
endfacet
facet normal -0.791661 0.603996 -0.091984
outer loop
vertex -17.344013 -11.367851 83.568428
vertex -16.939011 -9.955853 89.354431
vertex -9.088013 -1.317856 78.504433
endloop
endfacet
facet normal 0.348289 0.868502 0.352702
outer loop
vertex 19.644989 34.677147 22.346428
vertex 13.607986 31.990150 34.924435
vertex 15.786987 28.749146 40.753433
endloop
endfacet
facet normal -0.091920 0.886220 0.454055
outer loop
vertex -5.344009 26.573151 29.319429
vertex -1.283012 25.160149 32.899433
vertex -3.146011 30.494148 22.111429
endloop
endfacet
facet normal -0.792906 0.345600 -0.501858
outer loop
vertex -16.537010 28.779144 5.093430
vertex -20.245010 16.367149 2.404429
vertex -21.281013 22.488144 8.256429
endloop
endfacet
facet normal -0.851255 0.145051 0.504307
outer loop
vertex -16.797012 32.882149 3.474429
vertex -20.245010 16.367149 2.404429
vertex -16.537010 28.779144 5.093430
endloop
endfacet
facet normal -0.657030 0.667697 0.349990
outer loop
vertex -11.242012 -11.610855 94.780434
vertex -4.592010 -4.920853 94.501434
vertex -5.136009 -1.253853 86.484428
endloop
endfacet
facet normal -0.898502 -0.213884 0.383338
outer loop
vertex -22.556015 12.711151 12.549429
vertex -23.498013 7.257149 7.298429
vertex -17.764015 -1.445854 15.882430
endloop
endfacet
facet normal -0.913113 -0.407643 0.007187
outer loop
vertex -8.896011 -24.331856 47.213432
vertex -10.932014 -19.669853 52.964436
vertex -12.145012 -17.136856 42.522434
endloop
endfacet
facet normal 0.853361 0.500282 -0.146602
outer loop
vertex 27.991989 25.850151 25.234428
vertex 27.013992 23.663147 12.078429
vertex 22.541992 29.050148 4.430429
endloop
endfacet
facet normal -0.476335 0.801910 0.360618
outer loop
vertex 6.458984 34.276154 26.388430
vertex -3.146011 30.494148 22.111429
vertex 3.690987 24.043152 45.487434
endloop
endfacet
facet normal -0.949492 0.210739 0.232498
outer loop
vertex -8.540009 4.972145 34.781433
vertex -4.401016 13.679146 43.792435
vertex -6.748016 18.411148 29.918428
endloop
endfacet
facet normal -0.344418 0.671759 0.655832
outer loop
vertex -1.283012 25.160149 32.899433
vertex -5.344009 26.573151 29.319429
vertex -3.403015 22.922150 34.078434
endloop
endfacet
facet normal -0.767485 0.636758 0.074198
outer loop
vertex -3.146011 30.494148 22.111429
vertex -8.846008 24.365150 15.750430
vertex -8.292015 23.881149 25.634430
endloop
endfacet
facet normal -0.749661 0.649922 0.124943
outer loop
vertex -3.146011 30.494148 22.111429
vertex -8.292015 23.881149 25.634430
vertex -5.344009 26.573151 29.319429
endloop
endfacet
facet normal -0.156450 0.034162 0.987095
outer loop
vertex -18.870010 10.098145 14.655431
vertex -8.846008 24.365150 15.750430
vertex -10.870010 32.288147 15.155431
endloop
endfacet
facet normal -0.453807 -0.870920 0.188566
outer loop
vertex -18.242012 -2.424850 10.210429
vertex -10.996014 -2.499855 27.302429
vertex -17.764015 -1.445854 15.882430
endloop
endfacet
facet normal -0.640727 0.294978 0.708842
outer loop
vertex -18.031013 21.557144 12.958429
vertex -17.030014 31.594147 9.686429
vertex -22.556015 12.711151 12.549429
endloop
endfacet
facet normal -0.828291 0.181386 0.530126
outer loop
vertex -8.292015 23.881149 25.634430
vertex -6.748016 18.411148 29.918428
vertex -5.344009 26.573151 29.319429
endloop
endfacet
facet normal -0.823114 0.440533 -0.358350
outer loop
vertex -16.537010 28.779144 5.093430
vertex -21.281013 22.488144 8.256429
vertex -17.030014 31.594147 9.686429
endloop
endfacet
facet normal 0.642121 0.665392 0.380703
outer loop
vertex 27.991989 25.850151 25.234428
vertex 15.786987 28.749146 40.753433
vertex 25.833984 16.485146 45.242435
endloop
endfacet
facet normal -0.469212 0.048765 0.881738
outer loop
vertex -17.764015 -1.445854 15.882430
vertex -18.870010 10.098145 14.655431
vertex -22.556015 12.711151 12.549429
endloop
endfacet
facet normal -0.944489 0.151728 0.291407
outer loop
vertex -5.773010 -9.774853 98.436432
vertex -2.555016 -5.449852 106.614433
vertex -2.177010 -0.459854 105.241432
endloop
endfacet
facet normal -0.920494 0.087920 -0.380738
outer loop
vertex -9.007011 0.549149 33.154434
vertex -9.174011 -3.892853 32.532433
vertex -13.828011 -9.512856 42.486435
endloop
endfacet
facet normal -0.575076 0.595052 0.561427
outer loop
vertex -11.242012 -11.610855 94.780434
vertex -5.773010 -9.774853 98.436432
vertex -4.592010 -4.920853 94.501434
endloop
endfacet
facet normal -0.672518 0.585548 0.452607
outer loop
vertex -17.764015 -1.445854 15.882430
vertex -10.996014 -2.499855 27.302429
vertex -13.140015 3.333145 16.570429
endloop
endfacet
facet normal 0.340520 0.156612 0.927102
outer loop
vertex 3.413986 41.757149 8.309429
vertex -10.870010 32.288147 15.155431
vertex -8.846008 24.365150 15.750430
endloop
endfacet
facet normal 0.139140 0.305000 0.942133
outer loop
vertex 3.413986 41.757149 8.309429
vertex -8.846008 24.365150 15.750430
vertex -0.775009 29.848145 12.783429
endloop
endfacet
facet normal 0.692566 -0.190291 0.695803
outer loop
vertex 18.176987 -8.005852 8.014429
vertex 21.958984 -12.406853 3.046429
vertex 24.166992 -2.783852 3.480429
endloop
endfacet
facet normal 0.113663 -0.081714 0.990153
outer loop
vertex 0.290985 -27.062855 5.657430
vertex 0.610985 -15.263855 6.594429
vertex -6.624016 -16.154854 7.351429
endloop
endfacet
facet normal -0.419188 -0.901354 -0.108820
outer loop
vertex -9.333012 -6.313850 8.104429
vertex -11.328011 -6.790855 19.740429
vertex -18.242012 -2.424850 10.210429
endloop
endfacet
facet normal -0.999186 0.037968 -0.013614
outer loop
vertex -9.562012 -12.201855 8.490429
vertex -9.704014 -12.524853 18.011429
vertex -9.333012 -6.313850 8.104429
endloop
endfacet
facet normal 0.734848 -0.634532 0.239514
outer loop
vertex -1.166016 -36.597855 103.411430
vertex 2.407990 -36.407856 92.949432
vertex 5.909988 -30.672855 97.398430
endloop
endfacet
facet normal 0.356507 -0.918822 -0.169322
outer loop
vertex 11.182991 -29.298855 72.848434
vertex 2.407990 -36.407856 92.949432
vertex 0.597984 -36.224854 88.145432
endloop
endfacet
facet normal -0.345147 -0.791351 0.504616
outer loop
vertex -3.320015 -30.711853 88.604431
vertex -5.894012 -35.782856 78.891434
vertex -1.571014 -34.944855 83.162430
endloop
endfacet
facet normal -0.448384 -0.758765 -0.472470
outer loop
vertex -10.549011 -24.313854 64.890434
vertex -5.894012 -35.782856 78.891434
vertex -12.404015 -29.580853 75.109428
endloop
endfacet
facet normal 0.262510 -0.647640 0.715297
outer loop
vertex -6.487015 -24.192856 0.023429
vertex -6.624016 -16.154854 7.351429
vertex -11.835014 -20.569855 5.266429
endloop
endfacet
facet normal 0.025768 0.983038 0.181585
outer loop
vertex 8.976990 36.920151 11.717429
vertex 6.458984 34.276154 26.388430
vertex 19.644989 34.677147 22.346428
endloop
endfacet
facet normal 0.939442 -0.323169 -0.114069
outer loop
vertex 13.477989 -25.164856 80.037430
vertex 11.182991 -29.298855 72.848434
vertex 11.178986 -27.099854 66.585434
endloop
endfacet
facet normal 0.112461 -0.980165 -0.163181
outer loop
vertex -8.422012 -16.504852 22.023428
vertex -0.492012 -14.507854 15.493430
vertex 2.029991 -16.308853 28.049429
endloop
endfacet
facet normal -0.309417 -0.950912 -0.005251
outer loop
vertex 4.618988 -21.731853 34.147434
vertex 2.160988 -20.790855 8.576429
vertex 7.310989 -22.461853 7.714429
endloop
endfacet
facet normal -0.417880 -0.903028 -0.099582
outer loop
vertex -3.311012 -31.529854 95.984436
vertex -3.320015 -30.711853 88.604431
vertex 0.213989 -32.807854 92.781433
endloop
endfacet
facet normal -0.960031 -0.219556 -0.173598
outer loop
vertex -9.333012 -6.313850 8.104429
vertex -9.704014 -12.524853 18.011429
vertex -11.328011 -6.790855 19.740429
endloop
endfacet
facet normal -0.089718 -0.336753 0.937309
outer loop
vertex -9.562012 -12.201855 8.490429
vertex -11.835014 -20.569855 5.266429
vertex -6.624016 -16.154854 7.351429
endloop
endfacet
facet normal -0.537194 0.663402 0.520884
outer loop
vertex -9.359013 39.566147 7.444429
vertex -17.030014 31.594147 9.686429
vertex -10.870010 32.288147 15.155431
endloop
endfacet
facet normal 0.953647 -0.002804 0.300916
outer loop
vertex 33.137985 5.312149 22.098429
vertex 30.640991 19.118149 30.140429
vertex 26.852989 0.157150 41.968433
endloop
endfacet
facet normal 0.250034 -0.968208 0.007544
outer loop
vertex -6.624016 -16.154854 7.351429
vertex -0.492012 -14.507854 15.493430
vertex -8.422012 -16.504852 22.023428
endloop
endfacet
facet normal -0.806587 -0.590245 -0.032054
outer loop
vertex -9.562012 -12.201855 8.490429
vertex -6.624016 -16.154854 7.351429
vertex -9.704014 -12.524853 18.011429
endloop
endfacet
facet normal -0.785929 -0.522326 0.330895
outer loop
vertex -11.328011 -6.790855 19.740429
vertex -10.996014 -2.499855 27.302429
vertex -18.242012 -2.424850 10.210429
endloop
endfacet
facet normal 0.092313 -0.796962 0.596933
outer loop
vertex 26.700989 -2.757851 29.033430
vertex 15.684990 -10.082855 20.957428
vertex 25.345993 -10.634853 18.726429
endloop
endfacet
facet normal -0.440329 -0.846190 -0.300121
outer loop
vertex -16.484013 -1.597855 5.299429
vertex -9.333012 -6.313850 8.104429
vertex -18.242012 -2.424850 10.210429
endloop
endfacet
facet normal 0.633181 -0.759508 -0.149093
outer loop
vertex 7.310989 -22.461853 7.714429
vertex 13.954987 -18.540855 15.956429
vertex 11.636986 -23.809853 32.953434
endloop
endfacet
facet normal 0.131927 -0.986189 0.100132
outer loop
vertex 0.610985 -15.263855 6.594429
vertex -0.492012 -14.507854 15.493430
vertex -6.624016 -16.154854 7.351429
endloop
endfacet
facet normal -0.327259 -0.162927 -0.930783
outer loop
vertex -27.136013 -23.498856 74.433434
vertex -27.495014 -14.756851 73.029434
vertex -14.147011 -21.675854 69.547432
endloop
endfacet
facet normal 0.984571 -0.137065 -0.108782
outer loop
vertex 13.225990 -13.748856 3.320429
vertex 15.684990 -10.082855 20.957428
vertex 13.954987 -18.540855 15.956429
endloop
endfacet
facet normal 0.742783 -0.570131 -0.351033
outer loop
vertex 32.092987 -2.180855 19.272429
vertex 25.345993 -10.634853 18.726429
vertex 24.166992 -2.783852 3.480429
endloop
endfacet
facet normal -0.768409 -0.526540 -0.363736
outer loop
vertex -16.484013 -1.597855 5.299429
vertex -18.242012 -2.424850 10.210429
vertex -23.498013 7.257149 7.298429
endloop
endfacet
facet normal -0.667600 -0.507777 0.544493
outer loop
vertex -6.624016 -16.154854 7.351429
vertex -6.487015 -24.192856 0.023429
vertex 0.290985 -27.062855 5.657430
endloop
endfacet
facet normal 0.013510 -0.425213 0.904992
outer loop
vertex 2.160988 -20.790855 8.576429
vertex 0.290985 -27.062855 5.657430
vertex 7.310989 -22.461853 7.714429
endloop
endfacet
facet normal -0.818171 -0.023433 0.574497
outer loop
vertex 0.290985 -27.062855 5.657430
vertex 2.160988 -20.790855 8.576429
vertex 0.610985 -15.263855 6.594429
endloop
endfacet
facet normal 0.376266 -0.904861 -0.199126
outer loop
vertex 7.467987 -27.774857 59.845436
vertex 0.889984 -33.009853 71.204430
vertex -2.099014 -28.560856 45.339436
endloop
endfacet
facet normal -0.296104 -0.784805 -0.544430
outer loop
vertex -10.549011 -24.313854 64.890434
vertex 0.889984 -33.009853 71.204430
vertex -5.894012 -35.782856 78.891434
endloop
endfacet
facet normal -0.377307 -0.882837 0.279712
outer loop
vertex -27.136013 -23.498856 74.433434
vertex -12.404015 -29.580853 75.109428
vertex -15.653015 -25.806854 82.638435
endloop
endfacet
facet normal 0.868377 -0.494445 0.038032
outer loop
vertex 21.114990 -10.678852 45.933434
vertex 18.354988 -14.080856 64.723434
vertex 11.307991 -27.986855 44.837433
endloop
endfacet
facet normal 0.960458 -0.248147 0.126270
outer loop
vertex 13.477989 -25.164856 80.037430
vertex 18.354988 -14.080856 64.723434
vertex 14.582993 -17.290855 87.106430
endloop
endfacet
facet normal 0.893324 -0.440555 0.088785
outer loop
vertex 26.852989 0.157150 41.968433
vertex 21.114990 -10.678852 45.933434
vertex 26.700989 -2.757851 29.033430
endloop
endfacet
facet normal -0.787054 -0.614179 0.057699
outer loop
vertex -15.653015 -25.806854 82.638435
vertex -16.036011 -24.510857 91.209435
vertex -19.399014 -20.779854 85.050430
endloop
endfacet
facet normal 0.688774 -0.713710 -0.127314
outer loop
vertex 11.636986 -23.809853 32.953434
vertex 13.954987 -18.540855 15.956429
vertex 16.746986 -19.887856 38.612434
endloop
endfacet
facet normal 0.722039 -0.632060 -0.281354
outer loop
vertex 13.954987 -18.540855 15.956429
vertex 7.310989 -22.461853 7.714429
vertex 13.225990 -13.748856 3.320429
endloop
endfacet
facet normal -0.170337 0.733046 0.658505
outer loop
vertex -10.870010 32.288147 15.155431
vertex 3.413986 41.757149 8.309429
vertex -9.359013 39.566147 7.444429
endloop
endfacet
facet normal 0.730226 -0.650624 -0.208466
outer loop
vertex 11.636986 -23.809853 32.953434
vertex 16.746986 -19.887856 38.612434
vertex 11.307991 -27.986855 44.837433
endloop
endfacet
facet normal 0.128590 -0.691698 0.710646
outer loop
vertex 18.176987 -8.005852 8.014429
vertex 13.225990 -13.748856 3.320429
vertex 21.958984 -12.406853 3.046429
endloop
endfacet
facet normal 0.742362 -0.669054 0.035566
outer loop
vertex 15.684990 -10.082855 20.957428
vertex 13.225990 -13.748856 3.320429
vertex 18.176987 -8.005852 8.014429
endloop
endfacet
facet normal 0.792659 -0.477054 -0.379620
outer loop
vertex 32.461990 5.886147 9.905429
vertex 32.092987 -2.180855 19.272429
vertex 24.166992 -2.783852 3.480429
endloop
endfacet
facet normal -0.625308 -0.126813 0.770006
outer loop
vertex -11.835014 -20.569855 5.266429
vertex -9.562012 -12.201855 8.490429
vertex -17.077011 -17.582855 1.501429
endloop
endfacet
facet normal -0.237355 0.870167 0.431825
outer loop
vertex 13.607986 31.990150 34.924435
vertex 6.458984 34.276154 26.388430
vertex 3.690987 24.043152 45.487434
endloop
endfacet
facet normal -0.346774 -0.784897 0.513503
outer loop
vertex -10.932014 -19.669853 52.964436
vertex -8.896011 -24.331856 47.213432
vertex -2.099014 -28.560856 45.339436
endloop
endfacet
facet normal 0.533189 0.567545 0.627378
outer loop
vertex -2.320015 -21.816856 96.381432
vertex -1.850014 -32.297855 105.463432
vertex 5.909988 -30.672855 97.398430
endloop
endfacet
facet normal -0.293657 -0.813240 0.502401
outer loop
vertex -5.894012 -35.782856 78.891434
vertex -3.320015 -30.711853 88.604431
vertex -16.036011 -24.510857 91.209435
endloop
endfacet
facet normal 0.622790 -0.767142 -0.153706
outer loop
vertex 21.114990 -10.678852 45.933434
vertex 15.684990 -10.082855 20.957428
vertex 26.700989 -2.757851 29.033430
endloop
endfacet
facet normal -0.748917 -0.561536 0.351852
outer loop
vertex 0.213989 -32.807854 92.781433
vertex -3.320015 -30.711853 88.604431
vertex 0.597984 -36.224854 88.145432
endloop
endfacet
facet normal 0.212801 0.955507 -0.204259
outer loop
vertex 3.413986 41.757149 8.309429
vertex 12.631989 38.567154 2.990429
vertex 1.812988 40.981148 3.011429
endloop
endfacet
facet normal 0.439520 -0.885044 -0.153361
outer loop
vertex 7.467987 -27.774857 59.845436
vertex 11.178986 -27.099854 66.585434
vertex 0.889984 -33.009853 71.204430
endloop
endfacet
facet normal -0.577692 -0.812977 -0.073080
outer loop
vertex 0.889984 -33.009853 71.204430
vertex -10.549011 -24.313854 64.890434
vertex -2.099014 -28.560856 45.339436
endloop
endfacet
facet normal 0.717368 -0.595838 0.361054
outer loop
vertex 26.700989 -2.757851 29.033430
vertex 25.345993 -10.634853 18.726429
vertex 32.092987 -2.180855 19.272429
endloop
endfacet
facet normal -0.812078 -0.508292 -0.286650
outer loop
vertex 2.407990 -36.407856 92.949432
vertex -1.166016 -36.597855 103.411430
vertex 0.213989 -32.807854 92.781433
endloop
endfacet
facet normal 0.846122 -0.532594 0.020524
outer loop
vertex 14.582993 -17.290855 87.106430
vertex 5.909988 -30.672855 97.398430
vertex 2.407990 -36.407856 92.949432
endloop
endfacet
facet normal 0.349271 -0.933668 -0.079202
outer loop
vertex 11.182991 -29.298855 72.848434
vertex -1.571014 -34.944855 83.162430
vertex 0.889984 -33.009853 71.204430
endloop
endfacet
facet normal 0.937439 -0.277360 -0.210426
outer loop
vertex 15.684990 -10.082855 20.957428
vertex 21.114990 -10.678852 45.933434
vertex 16.746986 -19.887856 38.612434
endloop
endfacet
facet normal 0.991470 -0.115491 -0.060405
outer loop
vertex 32.461990 5.886147 9.905429
vertex 33.137985 5.312149 22.098429
vertex 32.092987 -2.180855 19.272429
endloop
endfacet
facet normal -0.582894 -0.545620 -0.602107
outer loop
vertex -2.135010 -21.596855 36.873432
vertex -12.145012 -17.136856 42.522434
vertex 2.029991 -16.308853 28.049429
endloop
endfacet
facet normal -0.832541 -0.502726 -0.232684
outer loop
vertex -8.422012 -16.504852 22.023428
vertex -12.965012 -12.438854 29.493429
vertex -9.704014 -12.524853 18.011429
endloop
endfacet
facet normal -0.949652 -0.299411 -0.092270
outer loop
vertex 2.160988 -20.790855 8.576429
vertex -0.492012 -14.507854 15.493430
vertex 0.610985 -15.263855 6.594429
endloop
endfacet
facet normal 0.015386 0.981343 0.191647
outer loop
vertex 19.644989 34.677147 22.346428
vertex 12.631989 38.567154 2.990429
vertex 8.976990 36.920151 11.717429
endloop
endfacet
facet normal -0.881156 0.334784 0.333892
outer loop
vertex -0.794014 -2.238853 93.195435
vertex 1.465988 -0.269852 97.185432
vertex -0.655014 1.063148 90.251434
endloop
endfacet
facet normal 0.979627 0.092348 0.178331
outer loop
vertex 14.582993 -17.290855 87.106430
vertex 18.354988 -14.080856 64.723434
vertex 15.425987 -8.090851 77.711433
endloop
endfacet
facet normal -0.325624 -0.137924 0.935385
outer loop
vertex -16.036011 -24.510857 91.209435
vertex -2.320015 -21.816856 96.381432
vertex -11.242012 -11.610855 94.780434
endloop
endfacet
facet normal 0.008733 0.122090 0.992481
outer loop
vertex 6.475990 -13.991852 95.341431
vertex -2.320015 -21.816856 96.381432
vertex 5.909988 -30.672855 97.398430
endloop
endfacet
facet normal -0.301376 -0.238143 0.923288
outer loop
vertex -2.320015 -21.816856 96.381432
vertex -16.036011 -24.510857 91.209435
vertex -4.485016 -24.787853 94.908432
endloop
endfacet
facet normal 0.723296 0.060286 0.687902
outer loop
vertex 6.475990 -13.991852 95.341431
vertex 5.909988 -30.672855 97.398430
vertex 14.582993 -17.290855 87.106430
endloop
endfacet
facet normal 0.301744 -0.215762 0.928653
outer loop
vertex 6.475990 -13.991852 95.341431
vertex -1.750015 -12.174854 98.436432
vertex -2.320015 -21.816856 96.381432
endloop
endfacet
facet normal -0.698248 -0.711765 0.076423
outer loop
vertex -5.894012 -35.782856 78.891434
vertex -16.036011 -24.510857 91.209435
vertex -15.653015 -25.806854 82.638435
endloop
endfacet
facet normal -0.522911 -0.652701 0.548220
outer loop
vertex -15.653015 -25.806854 82.638435
vertex -19.399014 -20.779854 85.050430
vertex -27.136013 -23.498856 74.433434
endloop
endfacet
facet normal 0.845431 -0.287631 0.450016
outer loop
vertex 33.137985 5.312149 22.098429
vertex 26.700989 -2.757851 29.033430
vertex 32.092987 -2.180855 19.272429
endloop
endfacet
facet normal 0.725928 -0.198737 0.658431
outer loop
vertex -1.166016 -36.597855 103.411430
vertex 5.909988 -30.672855 97.398430
vertex -1.850014 -32.297855 105.463432
endloop
endfacet
facet normal -0.972646 -0.139758 0.185545
outer loop
vertex -4.485016 -24.787853 94.908432
vertex -3.311012 -31.529854 95.984436
vertex -1.166016 -36.597855 103.411430
endloop
endfacet
facet normal -0.974272 -0.202341 0.099254
outer loop
vertex -4.485016 -24.787853 94.908432
vertex -1.166016 -36.597855 103.411430
vertex -1.850014 -32.297855 105.463432
endloop
endfacet
facet normal -0.791559 -0.578855 0.195858
outer loop
vertex -3.320015 -30.711853 88.604431
vertex -1.571014 -34.944855 83.162430
vertex 0.597984 -36.224854 88.145432
endloop
endfacet
facet normal -0.822831 -0.487869 0.291433
outer loop
vertex 2.407990 -36.407856 92.949432
vertex 0.213989 -32.807854 92.781433
vertex 0.597984 -36.224854 88.145432
endloop
endfacet
facet normal 0.770511 -0.627041 0.114601
outer loop
vertex 2.407990 -36.407856 92.949432
vertex 11.182991 -29.298855 72.848434
vertex 13.477989 -25.164856 80.037430
endloop
endfacet
facet normal 0.162707 -0.936271 -0.311325
outer loop
vertex 0.597984 -36.224854 88.145432
vertex -1.571014 -34.944855 83.162430
vertex 11.182991 -29.298855 72.848434
endloop
endfacet
facet normal -0.984521 -0.174329 -0.018122
outer loop
vertex -3.311012 -31.529854 95.984436
vertex -4.485016 -24.787853 94.908432
vertex -3.320015 -30.711853 88.604431
endloop
endfacet
facet normal -0.224090 -0.730523 0.645074
outer loop
vertex -4.485016 -24.787853 94.908432
vertex -16.036011 -24.510857 91.209435
vertex -3.320015 -30.711853 88.604431
endloop
endfacet
facet normal -0.704258 -0.708107 0.051038
outer loop
vertex -5.894012 -35.782856 78.891434
vertex -15.653015 -25.806854 82.638435
vertex -12.404015 -29.580853 75.109428
endloop
endfacet
facet normal 0.365846 -0.878048 -0.308525
outer loop
vertex 0.889984 -33.009853 71.204430
vertex 11.178986 -27.099854 66.585434
vertex 11.182991 -29.298855 72.848434
endloop
endfacet
facet normal 0.280694 -0.954908 -0.096752
outer loop
vertex 0.889984 -33.009853 71.204430
vertex -1.571014 -34.944855 83.162430
vertex -5.894012 -35.782856 78.891434
endloop
endfacet
facet normal -0.548539 -0.646872 -0.529775
outer loop
vertex -2.099014 -28.560856 45.339436
vertex -8.896011 -24.331856 47.213432
vertex -2.135010 -21.596855 36.873432
endloop
endfacet
facet normal -0.284298 -0.958733 -0.002476
outer loop
vertex 11.636986 -23.809853 32.953434
vertex 4.618988 -21.731853 34.147434
vertex 7.310989 -22.461853 7.714429
endloop
endfacet
facet normal 0.481341 0.802307 0.353008
outer loop
vertex 8.976990 36.920151 11.717429
vertex 12.631989 38.567154 2.990429
vertex 3.413986 41.757149 8.309429
endloop
endfacet
facet normal 0.835916 -0.426951 0.344903
outer loop
vertex 13.477989 -25.164856 80.037430
vertex 14.582993 -17.290855 87.106430
vertex 2.407990 -36.407856 92.949432
endloop
endfacet
facet normal -0.467859 -0.277360 0.839154
outer loop
vertex -11.242012 -11.610855 94.780434
vertex -2.320015 -21.816856 96.381432
vertex -5.773010 -9.774853 98.436432
endloop
endfacet
facet normal -0.209200 -0.593141 -0.777444
outer loop
vertex -27.136013 -23.498856 74.433434
vertex -14.147011 -21.675854 69.547432
vertex -12.404015 -29.580853 75.109428
endloop
endfacet
facet normal -0.388181 -0.784401 0.483766
outer loop
vertex -27.136013 -23.498856 74.433434
vertex -19.399014 -20.779854 85.050430
vertex -30.595013 -17.812851 80.877434
endloop
endfacet
facet normal 0.868354 -0.489781 -0.077953
outer loop
vertex 11.178986 -27.099854 66.585434
vertex 18.354988 -14.080856 64.723434
vertex 13.477989 -25.164856 80.037430
endloop
endfacet
facet normal 0.732192 -0.652122 0.196553
outer loop
vertex 11.307991 -27.986855 44.837433
vertex 18.354988 -14.080856 64.723434
vertex 7.467987 -27.774857 59.845436
endloop
endfacet
facet normal 0.871231 0.384714 0.304879
outer loop
vertex 16.894989 -8.080856 61.324436
vertex 18.354988 -14.080856 64.723434
vertex 19.776993 -9.595852 55.000435
endloop
endfacet
facet normal 0.989323 0.002242 0.145724
outer loop
vertex 18.354988 -14.080856 64.723434
vertex 21.114990 -10.678852 45.933434
vertex 19.776993 -9.595852 55.000435
endloop
endfacet
facet normal 0.987511 -0.044726 0.151067
outer loop
vertex 21.114990 -10.678852 45.933434
vertex 20.628990 -3.470856 51.244434
vertex 19.776993 -9.595852 55.000435
endloop
endfacet
facet normal -0.776954 -0.594686 -0.206620
outer loop
vertex -2.099014 -28.560856 45.339436
vertex -10.549011 -24.313854 64.890434
vertex -10.932014 -19.669853 52.964436
endloop
endfacet
facet normal -0.782106 -0.622957 0.015305
outer loop
vertex -23.498013 7.257149 7.298429
vertex -21.636013 4.816147 3.093429
vertex -16.484013 -1.597855 5.299429
endloop
endfacet
facet normal 0.983760 -0.125137 -0.128673
outer loop
vertex 16.746986 -19.887856 38.612434
vertex 13.954987 -18.540855 15.956429
vertex 15.684990 -10.082855 20.957428
endloop
endfacet
facet normal -0.306768 0.940959 -0.143140
outer loop
vertex -3.146011 30.494148 22.111429
vertex 6.458984 34.276154 26.388430
vertex -0.775009 29.848145 12.783429
endloop
endfacet
facet normal -0.930427 -0.358459 0.076246
outer loop
vertex 2.029991 -16.308853 28.049429
vertex 2.160988 -20.790855 8.576429
vertex 4.618988 -21.731853 34.147434
endloop
endfacet
facet normal -0.428424 -0.718145 0.548379
outer loop
vertex -5.773010 -9.774853 98.436432
vertex -1.750015 -12.174854 98.436432
vertex -2.555016 -5.449852 106.614433
endloop
endfacet
facet normal -0.096574 -0.979676 -0.175806
outer loop
vertex 25.345993 -10.634853 18.726429
vertex 15.684990 -10.082855 20.957428
vertex 18.176987 -8.005852 8.014429
endloop
endfacet
facet normal -0.945317 -0.187202 -0.267077
outer loop
vertex -9.704014 -12.524853 18.011429
vertex -12.965012 -12.438854 29.493429
vertex -11.328011 -6.790855 19.740429
endloop
endfacet
facet normal 0.033037 -0.999146 -0.024804
outer loop
vertex 2.029991 -16.308853 28.049429
vertex -12.145012 -17.136856 42.522434
vertex -8.422012 -16.504852 22.023428
endloop
endfacet
facet normal -0.792592 -0.587818 -0.162072
outer loop
vertex -12.145012 -17.136856 42.522434
vertex -12.965012 -12.438854 29.493429
vertex -8.422012 -16.504852 22.023428
endloop
endfacet
facet normal -0.577706 -0.742230 -0.339633
outer loop
vertex -1.166016 -36.597855 103.411430
vertex -3.311012 -31.529854 95.984436
vertex 0.213989 -32.807854 92.781433
endloop
endfacet
facet normal -0.119431 -0.200198 0.972449
outer loop
vertex -2.320015 -21.816856 96.381432
vertex -1.750015 -12.174854 98.436432
vertex -5.773010 -9.774853 98.436432
endloop
endfacet
facet normal 0.784650 -0.487305 -0.383221
outer loop
vertex 11.178986 -27.099854 66.585434
vertex 7.467987 -27.774857 59.845436
vertex 18.354988 -14.080856 64.723434
endloop
endfacet
facet normal -0.577490 -0.612610 -0.539642
outer loop
vertex -12.145012 -17.136856 42.522434
vertex -2.135010 -21.596855 36.873432
vertex -8.896011 -24.331856 47.213432
endloop
endfacet
facet normal 0.043706 -0.998724 0.025291
outer loop
vertex 11.307991 -27.986855 44.837433
vertex 7.467987 -27.774857 59.845436
vertex -2.099014 -28.560856 45.339436
endloop
endfacet
facet normal 0.017528 -0.858152 -0.513096
outer loop
vertex 4.618988 -21.731853 34.147434
vertex 11.307991 -27.986855 44.837433
vertex -2.099014 -28.560856 45.339436
endloop
endfacet
facet normal 0.822628 -0.556667 0.115782
outer loop
vertex 26.852989 0.157150 41.968433
vertex 26.700989 -2.757851 29.033430
vertex 33.137985 5.312149 22.098429
endloop
endfacet
facet normal 0.370554 -0.813781 -0.447716
outer loop
vertex 24.166992 -2.783852 3.480429
vertex 25.345993 -10.634853 18.726429
vertex 18.176987 -8.005852 8.014429
endloop
endfacet
facet normal -0.583136 0.811066 0.046085
outer loop
vertex 6.458984 34.276154 26.388430
vertex 8.976990 36.920151 11.717429
vertex -0.775009 29.848145 12.783429
endloop
endfacet
facet normal 0.861914 -0.495260 0.108729
outer loop
vertex 21.114990 -10.678852 45.933434
vertex 11.307991 -27.986855 44.837433
vertex 16.746986 -19.887856 38.612434
endloop
endfacet
facet normal -0.250317 -0.773801 -0.581871
outer loop
vertex -2.135010 -21.596855 36.873432
vertex 2.029991 -16.308853 28.049429
vertex 4.618988 -21.731853 34.147434
endloop
endfacet
facet normal -0.318752 -0.891416 -0.322140
outer loop
vertex 11.307991 -27.986855 44.837433
vertex 4.618988 -21.731853 34.147434
vertex 11.636986 -23.809853 32.953434
endloop
endfacet
facet normal -0.262080 -0.745840 -0.612402
outer loop
vertex -2.135010 -21.596855 36.873432
vertex 4.618988 -21.731853 34.147434
vertex -2.099014 -28.560856 45.339436
endloop
endfacet
facet normal -0.869265 -0.482996 0.105321
outer loop
vertex 2.029991 -16.308853 28.049429
vertex -0.492012 -14.507854 15.493430
vertex 2.160988 -20.790855 8.576429
endloop
endfacet
facet normal -0.903025 -0.412342 -0.120499
outer loop
vertex -6.624016 -16.154854 7.351429
vertex -8.422012 -16.504852 22.023428
vertex -9.704014 -12.524853 18.011429
endloop
endfacet
facet normal -0.195642 0.404448 0.893390
outer loop
vertex -0.775009 29.848145 12.783429
vertex 8.976990 36.920151 11.717429
vertex 3.413986 41.757149 8.309429
endloop
endfacet
facet normal -0.812989 -0.444172 -0.376510
outer loop
vertex -14.147011 -21.675854 69.547432
vertex -10.549011 -24.313854 64.890434
vertex -12.404015 -29.580853 75.109428
endloop
endfacet
facet normal -0.126550 0.846115 0.517759
outer loop
vertex 3.690987 24.043152 45.487434
vertex 15.786987 28.749146 40.753433
vertex 13.607986 31.990150 34.924435
endloop
endfacet
facet normal 0.040016 0.973054 0.227077
outer loop
vertex 13.607986 31.990150 34.924435
vertex 19.644989 34.677147 22.346428
vertex 6.458984 34.276154 26.388430
endloop
endfacet
facet normal 0.844277 -0.279834 0.457044
outer loop
vertex 20.628990 -3.470856 51.244434
vertex 21.114990 -10.678852 45.933434
vertex 26.852989 0.157150 41.968433
endloop
endfacet
facet normal -0.810467 0.362431 0.460203
outer loop
vertex -4.485016 -24.787853 94.908432
vertex -1.850014 -32.297855 105.463432
vertex -2.320015 -21.816856 96.381432
endloop
endfacet
facet normal 0.000000 0.000000 -1.000000
outer loop
vertex -19.402176 3.955215 -0.000571
vertex -20.981400 5.600731 -0.000571
vertex -20.405098 10.865784 -0.000571
endloop
endfacet
facet normal 0.000000 0.000000 -1.000000
outer loop
vertex -16.213291 -16.097443 -0.000571
vertex -14.407627 -14.172997 -0.000571
vertex -15.758995 -19.435276 -0.000571
endloop
endfacet
facet normal 0.000000 0.000000 -1.000000
outer loop
vertex -6.619308 -24.048042 -0.000571
vertex -8.142883 -6.951828 -0.000571
vertex -7.645607 35.035324 -0.000571
endloop
endfacet
facet normal 0.000000 0.000000 -1.000000
outer loop
vertex -6.619308 -24.048042 -0.000571
vertex -13.549160 -21.408394 -0.000571
vertex -8.142883 -6.951828 -0.000571
endloop
endfacet
facet normal 0.000000 0.000000 -1.000000
outer loop
vertex -6.585800 -24.160717 -0.000571
vertex -13.549160 -21.408394 -0.000571
vertex -6.619308 -24.048042 -0.000571
endloop
endfacet
facet normal 0.000000 0.000000 -1.000000
outer loop
vertex 24.516228 20.427040 -0.000571
vertex 22.353622 -8.697151 -0.000571
vertex 23.651314 22.652069 -0.000571
endloop
endfacet
facet normal 0.000000 0.000000 -1.000000
outer loop
vertex 25.231262 2.298470 -0.000571
vertex 22.353622 -8.697151 -0.000571
vertex 24.516228 20.427040 -0.000571
endloop
endfacet
facet normal 0.000000 0.000000 -1.000000
outer loop
vertex 4.713562 -28.312592 -0.000571
vertex -1.526047 -29.513027 -0.000571
vertex 2.315376 39.245255 -0.000571
endloop
endfacet
facet normal 0.000000 0.000000 -1.000000
outer loop
vertex 25.461960 17.669571 -0.000571
vertex 25.231262 2.298470 -0.000571
vertex 25.286087 20.073555 -0.000571
endloop
endfacet
facet normal 0.000000 0.000000 -1.000000
outer loop
vertex 27.084564 5.559227 -0.000571
vertex 25.231262 2.298470 -0.000571
vertex 25.461960 17.669571 -0.000571
endloop
endfacet
facet normal 0.000000 0.000000 -1.000000
outer loop
vertex -17.452316 25.683258 -0.000571
vertex -19.402176 3.955215 -0.000571
vertex -18.942146 19.121132 -0.000571
endloop
endfacet
facet normal 0.000000 0.000000 -1.000000
outer loop
vertex -12.375885 32.910423 -0.000571
vertex -19.402176 3.955215 -0.000571
vertex -17.452316 25.683258 -0.000571
endloop
endfacet
facet normal 0.000000 0.000000 -1.000000
outer loop
vertex -10.803955 33.755783 -0.000571
vertex -19.402176 3.955215 -0.000571
vertex -12.375885 32.910423 -0.000571
endloop
endfacet
facet normal -0.000000 0.000000 -1.000000
outer loop
vertex -10.143284 -5.646034 -0.000571
vertex -19.402176 3.955215 -0.000571
vertex -10.803955 33.755783 -0.000571
endloop
endfacet
facet normal -0.000000 0.000000 -1.000000
outer loop
vertex -13.549160 -21.408394 -0.000571
vertex -14.407627 -14.172997 -0.000571
vertex -14.334488 -13.199883 -0.000571
endloop
endfacet
facet normal 0.000000 0.000000 -1.000000
outer loop
vertex -13.549160 -21.408394 -0.000571
vertex -15.758995 -19.435276 -0.000571
vertex -14.407627 -14.172997 -0.000571
endloop
endfacet
facet normal 0.000000 0.000000 -1.000000
outer loop
vertex 8.630630 -14.821667 -0.000571
vertex 6.085701 -27.653122 -0.000571
vertex 6.838486 38.240761 -0.000571
endloop
endfacet
facet normal 0.000000 0.000000 -1.000000
outer loop
vertex -8.142883 -6.951828 -0.000571
vertex -10.143284 -5.646034 -0.000571
vertex -9.363678 33.928993 -0.000571
endloop
endfacet
facet normal -0.000000 0.000000 -1.000000
outer loop
vertex 16.707893 32.923752 -0.000571
vertex 10.736862 -13.042496 -0.000571
vertex 13.473526 36.256653 -0.000571
endloop
endfacet
facet normal 0.000000 0.000000 -1.000000
outer loop
vertex 18.108521 -12.877953 -0.000571
vertex 10.736862 -13.042496 -0.000571
vertex 16.707893 32.923752 -0.000571
endloop
endfacet
facet normal 0.000000 0.000000 -1.000000
outer loop
vertex -14.334488 -13.199883 -0.000571
vertex -8.142883 -6.951828 -0.000571
vertex -13.549160 -21.408394 -0.000571
endloop
endfacet
facet normal 0.000000 0.000000 -1.000000
outer loop
vertex 24.516228 20.427040 -0.000571
vertex 25.286087 20.073555 -0.000571
vertex 25.231262 2.298470 -0.000571
endloop
endfacet
facet normal 0.000000 0.000000 -1.000000
outer loop
vertex -20.405098 10.865784 -0.000571
vertex -18.942146 19.121132 -0.000571
vertex -19.402176 3.955215 -0.000571
endloop
endfacet
facet normal -0.000000 0.000000 -1.000000
outer loop
vertex -9.363678 33.928993 -0.000571
vertex -7.645607 35.035324 -0.000571
vertex -8.142883 -6.951828 -0.000571
endloop
endfacet
facet normal -0.000000 0.000000 -1.000000
outer loop
vertex -7.645607 35.035324 -0.000571
vertex -6.504120 -23.980324 -0.000571
vertex -6.619308 -24.048042 -0.000571
endloop
endfacet
facet normal 0.000000 0.000000 -1.000000
outer loop
vertex -7.645607 35.035324 -0.000571
vertex -6.385796 -23.505562 -0.000571
vertex -6.504120 -23.980324 -0.000571
endloop
endfacet
facet normal 0.000000 0.000000 -1.000000
outer loop
vertex -7.645607 35.035324 -0.000571
vertex -6.349236 -23.635830 -0.000571
vertex -6.385796 -23.505562 -0.000571
endloop
endfacet
facet normal 0.000000 0.000000 -1.000000
outer loop
vertex -7.645607 35.035324 -0.000571
vertex -6.296074 -23.824543 -0.000571
vertex -6.349236 -23.635830 -0.000571
endloop
endfacet
facet normal -0.000000 0.000000 -1.000000
outer loop
vertex -7.645607 35.035324 -0.000571
vertex -6.057915 -24.670044 -0.000571
vertex -6.296074 -23.824543 -0.000571
endloop
endfacet
facet normal -0.000000 0.000000 -1.000000
outer loop
vertex -7.645607 35.035324 -0.000571
vertex -1.526047 -29.513027 -0.000571
vertex -6.057915 -24.670044 -0.000571
endloop
endfacet
facet normal 0.000000 0.000000 -1.000000
outer loop
vertex -7.645607 35.035324 -0.000571
vertex 2.315376 39.245255 -0.000571
vertex -1.526047 -29.513027 -0.000571
endloop
endfacet
facet normal 0.000000 0.000000 -1.000000
outer loop
vertex 16.707893 32.923752 -0.000571
vertex 21.537735 -12.355080 -0.000571
vertex 18.108521 -12.877953 -0.000571
endloop
endfacet
facet normal -0.000000 0.000000 -1.000000
outer loop
vertex 16.707893 32.923752 -0.000571
vertex 22.353622 -8.697151 -0.000571
vertex 21.537735 -12.355080 -0.000571
endloop
endfacet
facet normal 0.000000 0.000000 -1.000000
outer loop
vertex 16.707893 32.923752 -0.000571
vertex 23.651314 22.652069 -0.000571
vertex 22.353622 -8.697151 -0.000571
endloop
endfacet
facet normal -0.000000 0.000000 -1.000000
outer loop
vertex 2.315376 39.245255 -0.000571
vertex 6.085701 -27.653122 -0.000571
vertex 4.713562 -28.312592 -0.000571
endloop
endfacet
facet normal 0.000000 0.000000 -1.000000
outer loop
vertex 2.315376 39.245255 -0.000571
vertex 6.838486 38.240761 -0.000571
vertex 6.085701 -27.653122 -0.000571
endloop
endfacet
facet normal 0.000000 0.000000 -1.000000
outer loop
vertex 6.838486 38.240761 -0.000571
vertex 10.736862 -13.042496 -0.000571
vertex 8.630630 -14.821667 -0.000571
endloop
endfacet
facet normal 0.000000 0.000000 -1.000000
outer loop
vertex 6.838486 38.240761 -0.000571
vertex 13.473526 36.256653 -0.000571
vertex 10.736862 -13.042496 -0.000571
endloop
endfacet
facet normal 0.000000 0.000000 -1.000000
outer loop
vertex -10.803955 33.755783 -0.000571
vertex -9.363678 33.928993 -0.000571
vertex -10.143284 -5.646034 -0.000571
endloop
endfacet
facet normal 0.680249 0.660139 -0.318555
outer loop
vertex 16.707893 32.923752 -0.000571
vertex 13.473526 36.256653 -0.000571
vertex 12.631989 38.567154 2.990429
endloop
endfacet
facet normal 0.680249 0.660139 -0.318555
outer loop
vertex 16.707893 32.923752 -0.000571
vertex 12.631989 38.567154 2.990429
vertex 22.541992 29.050148 4.430429
endloop
endfacet
facet normal 0.895222 0.347990 -0.278354
outer loop
vertex 24.516228 20.427040 -0.000571
vertex 23.651314 22.652069 -0.000571
vertex 22.541992 29.050148 4.430429
endloop
endfacet
facet normal 0.895223 0.347989 -0.278350
outer loop
vertex 24.516228 20.427040 -0.000571
vertex 22.541992 29.050148 4.430429
vertex 27.013992 23.663147 12.078429
endloop
endfacet
facet normal 0.396282 0.863067 -0.313171
outer loop
vertex 25.286087 20.073555 -0.000571
vertex 24.516228 20.427040 -0.000571
vertex 27.013992 23.663147 12.078429
endloop
endfacet
facet normal 0.396282 0.863067 -0.313171
outer loop
vertex 25.286087 20.073555 -0.000571
vertex 27.013992 23.663147 12.078429
vertex 32.321991 21.003151 11.464429
endloop
endfacet
facet normal -0.977872 0.107036 -0.179751
outer loop
vertex -20.405098 10.865784 -0.000571
vertex -20.981400 5.600731 -0.000571
vertex -21.636013 4.816147 3.093429
endloop
endfacet
facet normal -0.977872 0.107036 -0.179750
outer loop
vertex -20.405098 10.865784 -0.000571
vertex -21.636013 4.816147 3.093429
vertex -20.245010 16.367149 2.404429
endloop
endfacet
facet normal -0.406961 0.756735 -0.511600
outer loop
vertex -10.803955 33.755783 -0.000571
vertex -12.375885 32.910423 -0.000571
vertex -16.797012 32.882149 3.474429
endloop
endfacet
facet normal -0.406959 0.756735 -0.511602
outer loop
vertex -10.803955 33.755783 -0.000571
vertex -16.797012 32.882149 3.474429
vertex -9.359013 39.566147 7.444429
endloop
endfacet
facet normal -0.334441 0.791311 -0.511837
outer loop
vertex 2.315376 39.245255 -0.000571
vertex -7.645607 35.035324 -0.000571
vertex 1.812988 40.981148 3.011429
endloop
endfacet
facet normal -0.940334 0.213489 -0.264941
outer loop
vertex -17.452316 25.683258 -0.000571
vertex -18.942146 19.121132 -0.000571
vertex -20.245010 16.367149 2.404429
endloop
endfacet
facet normal -0.940334 0.213488 -0.264942
outer loop
vertex -17.452316 25.683258 -0.000571
vertex -20.245010 16.367149 2.404429
vertex -16.797012 32.882149 3.474429
endloop
endfacet
facet normal 0.848410 0.062068 -0.525689
outer loop
vertex 25.461960 17.669571 -0.000571
vertex 25.286087 20.073555 -0.000571
vertex 32.321991 21.003151 11.464429
endloop
endfacet
facet normal 0.848409 0.062071 -0.525689
outer loop
vertex 25.461960 17.669571 -0.000571
vertex 32.321991 21.003151 11.464429
vertex 32.461990 5.886147 9.905429
endloop
endfacet
facet normal 0.871229 0.116731 -0.476795
outer loop
vertex 27.084564 5.559227 -0.000571
vertex 25.461960 17.669571 -0.000571
vertex 32.461990 5.886147 9.905429
endloop
endfacet
facet normal 0.710023 0.479959 -0.515273
outer loop
vertex 23.651314 22.652069 -0.000571
vertex 16.707893 32.923752 -0.000571
vertex 22.541992 29.050148 4.430429
endloop
endfacet
facet normal -0.934052 0.165526 -0.316461
outer loop
vertex -18.942146 19.121132 -0.000571
vertex -20.405098 10.865784 -0.000571
vertex -20.245010 16.367149 2.404429
endloop
endfacet
facet normal -0.546560 -0.837297 -0.014349
outer loop
vertex -10.143284 -5.646034 -0.000571
vertex -8.142883 -6.951828 -0.000571
vertex -9.333012 -6.313850 8.104429
endloop
endfacet
facet normal -0.546559 -0.837298 -0.014349
outer loop
vertex -10.143284 -5.646034 -0.000571
vertex -9.333012 -6.313850 8.104429
vertex -16.484013 -1.597855 5.299429
endloop
endfacet
facet normal -0.645059 -0.603620 0.468552
outer loop
vertex -6.057915 -24.670044 -0.000571
vertex -1.526047 -29.513027 -0.000571
vertex 0.290985 -27.062855 5.657430
endloop
endfacet
facet normal -0.645059 -0.603620 0.468553
outer loop
vertex -6.057915 -24.670044 -0.000571
vertex 0.290985 -27.062855 5.657430
vertex -6.487015 -24.192856 0.023429
endloop
endfacet
facet normal -0.631433 -0.707186 0.318089
outer loop
vertex -15.758995 -19.435276 -0.000571
vertex -13.549160 -21.408394 -0.000571
vertex -11.835014 -20.569855 5.266429
endloop
endfacet
facet normal -0.631432 -0.707187 0.318088
outer loop
vertex -15.758995 -19.435276 -0.000571
vertex -11.835014 -20.569855 5.266429
vertex -17.077011 -17.582855 1.501429
endloop
endfacet
facet normal 0.177497 -0.922591 0.342522
outer loop
vertex -1.526047 -29.513027 -0.000571
vertex 4.713562 -28.312592 -0.000571
vertex 0.290985 -27.062855 5.657430
endloop
endfacet
facet normal 0.021751 -0.974447 -0.223562
outer loop
vertex 10.736862 -13.042496 -0.000571
vertex 18.108521 -12.877953 -0.000571
vertex 13.225990 -13.748856 3.320429
endloop
endfacet
facet normal -0.685507 -0.657891 -0.311866
outer loop
vertex -20.981400 5.600731 -0.000571
vertex -19.402176 3.955215 -0.000571
vertex -16.484013 -1.597855 5.299429
endloop
endfacet
facet normal -0.685507 -0.657890 -0.311866
outer loop
vertex -20.981400 5.600731 -0.000571
vertex -16.484013 -1.597855 5.299429
vertex -21.636013 4.816147 3.093429
endloop
endfacet
facet normal -0.701419 0.695082 -0.157708
outer loop
vertex -8.142883 -6.951828 -0.000571
vertex -14.334488 -13.199883 -0.000571
vertex -9.333012 -6.313850 8.104429
endloop
endfacet
facet normal 0.964790 -0.252493 -0.073672
outer loop
vertex 22.353622 -8.697151 -0.000571
vertex 25.231262 2.298470 -0.000571
vertex 24.166992 -2.783852 3.480429
endloop
endfacet
facet normal -0.873134 0.065626 0.483043
outer loop
vertex -14.334488 -13.199883 -0.000571
vertex -14.407627 -14.172997 -0.000571
vertex -9.562012 -12.201855 8.490429
endloop
endfacet
facet normal -0.873134 0.065625 0.483043
outer loop
vertex -14.334488 -13.199883 -0.000571
vertex -9.562012 -12.201855 8.490429
vertex -9.333012 -6.313850 8.104429
endloop
endfacet
facet normal 0.980590 -0.194486 -0.024871
outer loop
vertex 6.085701 -27.653122 -0.000571
vertex 8.630630 -14.821667 -0.000571
vertex 7.310989 -22.461853 7.714429
endloop
endfacet
facet normal -0.706246 0.662654 0.249212
outer loop
vertex -14.407627 -14.172997 -0.000571
vertex -16.213291 -16.097443 -0.000571
vertex -17.077011 -17.582855 1.501429
endloop
endfacet
facet normal -0.706248 0.662654 0.249207
outer loop
vertex -14.407627 -14.172997 -0.000571
vertex -17.077011 -17.582855 1.501429
vertex -9.562012 -12.201855 8.490429
endloop
endfacet
facet normal -0.355080 -0.898350 0.258622
outer loop
vertex -13.549160 -21.408394 -0.000571
vertex -6.585800 -24.160717 -0.000571
vertex -6.487015 -24.192856 0.023429
endloop
endfacet
facet normal -0.355084 -0.898359 0.258586
outer loop
vertex -13.549160 -21.408394 -0.000571
vertex -6.487015 -24.192856 0.023429
vertex -11.835014 -20.569855 5.266429
endloop
endfacet
facet normal 0.191838 0.863821 -0.465844
outer loop
vertex 6.838486 38.240761 -0.000571
vertex 2.315376 39.245255 -0.000571
vertex 1.812988 40.981148 3.011429
endloop
endfacet
facet normal 0.191836 0.863820 -0.465848
outer loop
vertex 6.838486 38.240761 -0.000571
vertex 1.812988 40.981148 3.011429
vertex 12.631989 38.567154 2.990429
endloop
endfacet
facet normal -0.540958 0.840078 0.040424
outer loop
vertex -7.645607 35.035324 -0.000571
vertex -9.363678 33.928993 -0.000571
vertex 3.413986 41.757149 8.309429
endloop
endfacet
facet normal -0.540959 0.840077 0.040425
outer loop
vertex -7.645607 35.035324 -0.000571
vertex 3.413986 41.757149 8.309429
vertex 1.812988 40.981148 3.011429
endloop
endfacet
facet normal 0.966771 -0.215635 -0.137317
outer loop
vertex 21.537735 -12.355080 -0.000571
vertex 22.353622 -8.697151 -0.000571
vertex 24.166992 -2.783852 3.480429
endloop
endfacet
facet normal 0.966771 -0.215633 -0.137320
outer loop
vertex 21.537735 -12.355080 -0.000571
vertex 24.166992 -2.783852 3.480429
vertex 21.958984 -12.406853 3.046429
endloop
endfacet
facet normal -0.095444 0.793636 -0.600860
outer loop
vertex -9.363678 33.928993 -0.000571
vertex -10.803955 33.755783 -0.000571
vertex -9.359013 39.566147 7.444429
endloop
endfacet
facet normal -0.095445 0.793636 -0.600860
outer loop
vertex -9.363678 33.928993 -0.000571
vertex -9.359013 39.566147 7.444429
vertex 3.413986 41.757149 8.309429
endloop
endfacet
facet normal 0.791136 -0.449655 -0.414625
outer loop
vertex 25.231262 2.298470 -0.000571
vertex 27.084564 5.559227 -0.000571
vertex 32.461990 5.886147 9.905429
endloop
endfacet
facet normal 0.791136 -0.449655 -0.414625
outer loop
vertex 25.231262 2.298470 -0.000571
vertex 32.461990 5.886147 9.905429
vertex 24.166992 -2.783852 3.480429
endloop
endfacet
facet normal 0.542003 -0.641637 -0.542710
outer loop
vertex 8.630630 -14.821667 -0.000571
vertex 10.736862 -13.042496 -0.000571
vertex 13.225990 -13.748856 3.320429
endloop
endfacet
facet normal 0.542002 -0.641639 -0.542709
outer loop
vertex 8.630630 -14.821667 -0.000571
vertex 13.225990 -13.748856 3.320429
vertex 7.310989 -22.461853 7.714429
endloop
endfacet
facet normal -0.683368 -0.659001 -0.314207
outer loop
vertex -19.402176 3.955215 -0.000571
vertex -10.143284 -5.646034 -0.000571
vertex -16.484013 -1.597855 5.299429
endloop
endfacet
facet normal -0.810540 -0.110319 -0.575199
outer loop
vertex -16.213291 -16.097443 -0.000571
vertex -15.758995 -19.435276 -0.000571
vertex -17.077011 -17.582855 1.501429
endloop
endfacet
facet normal 0.381529 -0.793835 0.473562
outer loop
vertex 4.713562 -28.312592 -0.000571
vertex 6.085701 -27.653122 -0.000571
vertex 7.310989 -22.461853 7.714429
endloop
endfacet
facet normal 0.381527 -0.793836 0.473563
outer loop
vertex 4.713562 -28.312592 -0.000571
vertex 7.310989 -22.461853 7.714429
vertex 0.290985 -27.062855 5.657430
endloop
endfacet
facet normal 0.150627 -0.987875 -0.037610
outer loop
vertex 18.108521 -12.877953 -0.000571
vertex 21.537735 -12.355080 -0.000571
vertex 21.958984 -12.406853 3.046429
endloop
endfacet
facet normal 0.150627 -0.987875 -0.037610
outer loop
vertex 18.108521 -12.877953 -0.000571
vertex 21.958984 -12.406853 3.046429
vertex 13.225990 -13.748856 3.320429
endloop
endfacet
facet normal 0.258972 0.077018 -0.962809
outer loop
vertex -6.585800 -24.160717 -0.000571
vertex -6.619308 -24.048042 -0.000571
vertex -6.487015 -24.192856 0.023429
endloop
endfacet
facet normal -0.081311 -0.022820 -0.996427
outer loop
vertex -6.385796 -23.505562 -0.000571
vertex -6.349236 -23.635830 -0.000571
vertex -6.487015 -24.192856 0.023429
endloop
endfacet
facet normal 0.062897 -0.106988 -0.992269
outer loop
vertex -6.619308 -24.048042 -0.000571
vertex -6.504120 -23.980324 -0.000571
vertex -6.487015 -24.192856 0.023429
endloop
endfacet
facet normal 0.322966 -0.080492 -0.942982
outer loop
vertex -6.504120 -23.980324 -0.000571
vertex -6.385796 -23.505562 -0.000571
vertex -6.487015 -24.192856 0.023429
endloop
endfacet
facet normal -0.568188 0.399101 -0.719639
outer loop
vertex -12.375885 32.910423 -0.000571
vertex -17.452316 25.683258 -0.000571
vertex -16.797012 32.882149 3.474429
endloop
endfacet
facet normal 0.239171 0.799809 -0.550548
outer loop
vertex 13.473526 36.256653 -0.000571
vertex 6.838486 38.240761 -0.000571
vertex 12.631989 38.567154 2.990429
endloop
endfacet
facet normal -0.081153 -0.022859 -0.996440
outer loop
vertex -6.296074 -23.824543 -0.000571
vertex -6.057915 -24.670044 -0.000571
vertex -6.487015 -24.192856 0.023429
endloop
endfacet
facet normal -0.081149 -0.022861 -0.996440
outer loop
vertex -6.349236 -23.635830 -0.000571
vertex -6.296074 -23.824543 -0.000571
vertex -6.487015 -24.192856 0.023429
endloop
endfacet
endsolid Exported from Blender-3.6.5
